<?xml version="1.0" encoding="iso-8859-1"?>
<!-- Generator: Adobe Illustrator 18.0.0, SVG Export Plug-In . SVG Version: 6.00 Build 0)  -->
<!DOCTYPE svg PUBLIC "-//W3C//DTD SVG 1.1//EN" "http://www.w3.org/Graphics/SVG/1.1/DTD/svg11.dtd">
<svg version="1.1" id="Capa_1" xmlns="http://www.w3.org/2000/svg" xmlns:xlink="http://www.w3.org/1999/xlink" x="0px" y="0px"
	 viewBox="0 0 191.35 191.35" style="enable-background:new 0 0 191.35 191.35;" xml:space="preserve">
<g>
	<g>
		<path style="fill-rule:evenodd;clip-rule:evenodd;fill:#1A1A1A;" d="M163.445,118.734c-0.68,8.828-7.373,21.413-16.238,27.802
			c-8.867-6.389-15.375-19.314-16.215-27.659c-0.842-8.345,13.902-8.855,13.902-8.855S162.622,114.44,163.445,118.734z"/>
		<g>
			<circle style="fill-rule:evenodd;clip-rule:evenodd;fill:#E6E6E6;" cx="147.353" cy="70.911" r="0.587"/>
			<circle style="fill-rule:evenodd;clip-rule:evenodd;fill:#E6E6E6;" cx="147.353" cy="78.329" r="0.587"/>
			<circle style="fill-rule:evenodd;clip-rule:evenodd;fill:#E6E6E6;" cx="147.353" cy="85.747" r="0.587"/>
			<circle style="fill-rule:evenodd;clip-rule:evenodd;fill:#E6E6E6;" cx="147.353" cy="93.165" r="0.587"/>
		</g>
		<path style="fill-rule:evenodd;clip-rule:evenodd;fill:#1A1A1A;" d="M157.917,61.085c4.023,11.94,4.199,35.623-1.379,54.126
			l4.283,1.191c6.289-13.877,14.945-48.711,8.459-51.195C166.509,63.929,163.269,61.82,157.917,61.085z"/>
		<g>
			<path style="fill-rule:evenodd;clip-rule:evenodd;fill:#323232;" d="M150.212,186.885c-1.123-24.092-2.244-48.185-3.365-72.277
				c5.19,0,10.379,0,15.568,0c-1.082,24.093-2.166,48.186-3.248,72.277C156.183,186.885,153.197,186.885,150.212,186.885z"/>
			<path style="fill-rule:evenodd;clip-rule:evenodd;fill:#323232;" d="M135.617,186.885c-1.123-24.092-2.242-48.185-3.365-72.277
				c5.189,0,10.379,0,15.568,0c-1.082,24.093-2.166,48.186-3.248,72.277C141.587,186.885,138.601,186.885,135.617,186.885z"/>
		</g>
		<rect x="130.935" y="115.518" style="fill-rule:evenodd;clip-rule:evenodd;fill:#1A1A1A;" width="32.598" height="3.379"/>
		<path style="fill-rule:evenodd;clip-rule:evenodd;fill:#1A1A1A;" d="M136.117,61.085c-4.024,11.94-4.199,35.623,1.377,54.126
			l-4.281,1.191c-6.289-13.877-14.947-48.711-8.459-51.195C127.525,63.929,130.765,61.82,136.117,61.085z"/>
		<path style="fill-rule:evenodd;clip-rule:evenodd;fill:#323232;" d="M163.533,117.114l5.67-52.23l-12.723-5.56h-18.293
			c-4.24,1.854-10.139,3.375-12.723,5.56l5.471,52.23H163.533z"/>
		<g>
			<path style="fill-rule:evenodd;clip-rule:evenodd;fill:#FFFFFF;" d="M165.113,77.355c-0.035,0.053-0.072,0.101-0.113,0.143
				c0.082,0.137,0.141,0.299,0.166,0.48c0.086,0.605-0.236,1.184-0.721,1.29c-0.055,0.012-0.109,0.018-0.162,0.017
				c-0.006,0.172-0.045,0.344-0.119,0.503c-0.246,0.532-0.791,0.716-1.217,0.407c-0.047-0.034-0.092-0.073-0.131-0.115
				c-0.094,0.125-0.211,0.226-0.35,0.289c-0.463,0.211-0.973-0.088-1.143-0.666c-0.018-0.064-0.031-0.13-0.041-0.195
				c-0.137,0.022-0.277,0.005-0.416-0.059c-0.463-0.21-0.701-0.85-0.531-1.428c0.018-0.064,0.041-0.125,0.068-0.183
				c-0.115-0.093-0.217-0.22-0.289-0.38c-0.246-0.532-0.1-1.214,0.326-1.521c0.047-0.034,0.096-0.063,0.146-0.084
				c-0.041-0.164-0.053-0.343-0.027-0.523c0.086-0.605,0.549-1.01,1.033-0.903c0.053,0.012,0.105,0.03,0.156,0.053
				c0.053-0.158,0.137-0.304,0.248-0.422c0.377-0.396,0.939-0.334,1.256,0.138c0.035,0.053,0.064,0.107,0.092,0.166
				c0.121-0.079,0.26-0.123,0.406-0.123c0.492,0,0.891,0.498,0.891,1.113c0,0.069-0.004,0.137-0.014,0.201
				c0.135,0.038,0.264,0.115,0.375,0.233C165.38,76.182,165.429,76.885,165.113,77.355z"/>
			<rect x="159.449" y="77.117" style="fill-rule:evenodd;clip-rule:evenodd;fill:#323232;" width="6.42" height="3.702"/>
		</g>
		<polygon style="fill-rule:evenodd;clip-rule:evenodd;fill:#FFFFFF;" points="138.187,59.324 147.327,103.326 156.48,59.324 		"/>
		<rect x="145.71" y="62.959" style="fill-rule:evenodd;clip-rule:evenodd;fill:#E6E6E6;" width="0.519" height="36.504"/>
		<g>
			<polygon style="fill-rule:evenodd;clip-rule:evenodd;fill:#1A1A1A;" points="138.187,59.324 129.607,68.95 139.529,77.455 
				132.443,82.063 147.327,103.326 			"/>
			<polygon style="fill-rule:evenodd;clip-rule:evenodd;fill:#1A1A1A;" points="156.48,59.324 165.046,68.95 155.124,77.455 
				162.212,82.063 147.327,103.326 			"/>
		</g>
		<polygon style="fill-rule:evenodd;clip-rule:evenodd;fill:#1A1A1A;" points="146.206,117.114 148.687,117.114 148.687,101.384 
			147.327,102.674 146.206,101.61 		"/>
		<rect x="141.63" y="45.732" style="fill-rule:evenodd;clip-rule:evenodd;fill:#E7B791;" width="11.633" height="16.417"/>
		<polygon style="fill-rule:evenodd;clip-rule:evenodd;fill:#FFFFFF;" points="138.187,59.324 141.841,55.363 147.447,59.324 
			139.855,67.342 		"/>
		<polygon style="fill-rule:evenodd;clip-rule:evenodd;fill:#FFFFFF;" points="156.48,59.324 152.714,55.014 147.447,59.324 
			154.853,67.342 		"/>
		<polygon style="fill-rule:evenodd;clip-rule:evenodd;fill:#E6E6E6;" points="139.855,67.342 147.447,63.334 154.853,67.342 
			147.447,59.324 		"/>
		<g>
			<g>
				<path style="fill-rule:evenodd;clip-rule:evenodd;fill:#212E36;" d="M148.603,62.468c1.328-0.702,4.912-3.29,5.643-2.632
					c1.004,0.905,1.004,6.092,0,6.997c-0.731,0.658-4.315-1.931-5.643-2.632C148.22,63.741,148.22,62.928,148.603,62.468z"/>
				<path style="fill-rule:evenodd;clip-rule:evenodd;fill:#212E36;" d="M146.105,62.468c-1.328-0.702-4.912-3.29-5.643-2.632
					c-1.006,0.905-1.006,6.092,0,6.997c0.73,0.658,4.314-1.931,5.643-2.632C146.486,63.741,146.486,62.928,146.105,62.468z"/>
			</g>
			<path style="fill-rule:evenodd;clip-rule:evenodd;fill:#405059;" d="M146.374,62.063h1.959c0.338,0,0.613,0.275,0.613,0.613
				v1.316c0,0.338-0.275,0.614-0.613,0.614h-1.959c-0.338,0-0.613-0.276-0.613-0.614v-1.316
				C145.761,62.338,146.036,62.063,146.374,62.063z"/>
		</g>
		<path style="fill-rule:evenodd;clip-rule:evenodd;fill:#1A1A1A;" d="M135.683,191.35c4.897,0,8.889-2.006,8.889-4.465
			c0-2.459-3.992-4.465-8.889-4.465c-4.896,0-8.891,2.006-8.891,4.465C126.792,189.344,130.786,191.35,135.683,191.35z"/>
		<path style="fill-rule:evenodd;clip-rule:evenodd;fill:#1A1A1A;" d="M159.101,191.35c4.896,0,8.891-2.006,8.891-4.465
			c0-2.459-3.994-4.465-8.891-4.465c-4.896,0-8.889,2.006-8.889,4.465C150.212,189.344,154.204,191.35,159.101,191.35z"/>
		<path style="fill-rule:evenodd;clip-rule:evenodd;fill:#FFD8B8;" d="M147.447,56.601c14.811,0,26.891-9.31,26.891-20.727
			c0-11.416-12.08-20.728-26.891-20.728c-14.811,0-26.891,9.312-26.891,20.728C120.556,47.291,132.636,56.601,147.447,56.601z"/>
		<g>
			<path style="fill-rule:evenodd;clip-rule:evenodd;fill:#666666;" d="M135.626,33.6c0.727,2.439,5.658,2.396,6.158-0.027
				C140.156,34.83,136.904,34.452,135.626,33.6z"/>
			<path style="fill-rule:evenodd;clip-rule:evenodd;fill:#666666;" d="M159.142,33.6c-0.729,2.439-5.66,2.396-6.16-0.027
				C154.611,34.83,157.863,34.452,159.142,33.6z"/>
		</g>
		<path style="fill-rule:evenodd;clip-rule:evenodd;fill:#FFF4C7;" d="M164.628,21.021c-11.359-3.173-39.055-9.013-39.389,16.765
			c-0.014,0.998-3.566-6.317-4.26-5.502c2.315-12.269,17.514-19.155,30.438-17.37C156.189,15.573,160.544,16.828,164.628,21.021z"/>
		<path style="fill-rule:evenodd;clip-rule:evenodd;fill:#E7B791;" d="M156.32,43.578c-3.867,0.749-13.336,0.684-17.748,0
			C143.128,49.05,152.685,49.24,156.32,43.578z"/>
		<path style="fill-rule:evenodd;clip-rule:evenodd;fill:#FFF4C7;" d="M173.152,30.454c-15.963-17.738-43.85,3.829-45.346-24.456
			C144.884,23.089,166.829,6.078,173.152,30.454z"/>
		<path style="fill-rule:evenodd;clip-rule:evenodd;fill:#FFF4C7;" d="M173.152,33.672c-0.322-1.051-3.338,6.591-3.453,2.646
			C168.952,10.388,128.974,28.474,135.568,0c4.832,8.476,5.771,11.891,15.371,13.85C160.72,15.844,172.728,18.921,173.152,33.672z"
			/>
		
			<ellipse transform="matrix(-0.2258 -0.9742 0.9742 -0.2258 116.933 157.3178)" style="fill-rule:evenodd;clip-rule:evenodd;fill:#FFD8B8;" cx="120.98" cy="32.193" rx="5.761" ry="3.687"/>
		<g>
			<path style="fill-rule:evenodd;clip-rule:evenodd;fill:#E7B791;" d="M97.154,60.844c3.473,1.723,5.699,4.101,9.172,5.825
				c2.434-4.901,4.867-9.803,7.299-14.705c-3.473-1.724-6.945-3.447-10.418-5.172C100.773,51.693,98.941,54.848,97.154,60.844z"/>
			<path style="fill-rule:evenodd;clip-rule:evenodd;fill:#FFEDDE;" d="M80.868,91.657l7.096-20.754
				c2.758-4.78,4.992-8.168,9.969-13.149c2.07,3.238,7.34,5.662,10.311,6.007c1.672,2.526-0.375,10.623-3.922,15.411l-13.027,18.35
				L80.868,91.657z"/>
			
				<ellipse transform="matrix(-0.4086 -0.9127 0.9127 -0.4086 93.9742 123.4762)" style="fill-rule:evenodd;clip-rule:evenodd;fill:#FFF4C7;" cx="86.99" cy="31.293" rx="15.362" ry="15.517"/>
			<path style="fill-rule:evenodd;clip-rule:evenodd;fill:#FFFFFF;" d="M92.005,42.146c0.018,0.046,0.031,0.095,0.041,0.142
				c0.125-0.017,0.256-0.008,0.383,0.036c0.43,0.147,0.656,0.613,0.51,1.042c-0.016,0.048-0.037,0.094-0.061,0.136
				c0.107,0.066,0.201,0.159,0.27,0.274c0.232,0.389,0.109,0.893-0.279,1.126c-0.043,0.026-0.088,0.048-0.135,0.065
				c0.039,0.119,0.053,0.251,0.031,0.385c-0.072,0.446-0.492,0.751-0.937,0.682c-0.051-0.009-0.1-0.021-0.145-0.037
				c-0.047,0.117-0.123,0.226-0.225,0.315c-0.342,0.297-0.859,0.262-1.156-0.08c-0.033-0.038-0.063-0.079-0.088-0.121
				c-0.111,0.06-0.238,0.094-0.373,0.097c-0.453,0.008-0.826-0.353-0.834-0.806c-0.002-0.051,0.004-0.1,0.01-0.148
				c-0.123-0.025-0.242-0.08-0.348-0.165c-0.352-0.286-0.406-0.802-0.121-1.153c0.031-0.04,0.066-0.076,0.104-0.107
				c-0.078-0.1-0.135-0.217-0.16-0.351c-0.088-0.444,0.203-0.876,0.648-0.962c0.049-0.01,0.1-0.015,0.147-0.014
				c0.006-0.129,0.037-0.256,0.103-0.373c0.221-0.396,0.719-0.539,1.115-0.32c0.045,0.024,0.086,0.053,0.123,0.084
				c0.084-0.094,0.191-0.171,0.318-0.219C91.368,41.512,91.843,41.723,92.005,42.146z"/>
			<path style="fill-rule:evenodd;clip-rule:evenodd;fill:#FFFFFF;" d="M92.04,36.511c0.016,0.048,0.029,0.096,0.039,0.144
				c0.125-0.019,0.256-0.008,0.385,0.036c0.428,0.148,0.654,0.615,0.508,1.043c-0.016,0.048-0.037,0.093-0.06,0.136
				c0.107,0.066,0.201,0.159,0.269,0.275c0.234,0.387,0.109,0.892-0.279,1.124c-0.043,0.026-0.088,0.048-0.133,0.066
				c0.039,0.12,0.051,0.252,0.029,0.385c-0.07,0.447-0.49,0.753-0.938,0.682c-0.051-0.009-0.1-0.02-0.146-0.036
				c-0.045,0.117-0.119,0.226-0.223,0.313c-0.342,0.297-0.859,0.262-1.156-0.08c-0.033-0.039-0.063-0.078-0.088-0.121
				c-0.109,0.061-0.236,0.095-0.373,0.098c-0.453,0.008-0.826-0.354-0.834-0.807c-0.002-0.05,0.004-0.1,0.01-0.147
				c-0.123-0.026-0.242-0.081-0.348-0.165c-0.352-0.285-0.406-0.802-0.121-1.155c0.031-0.038,0.066-0.073,0.104-0.107
				c-0.078-0.099-0.135-0.219-0.16-0.35c-0.086-0.444,0.203-0.875,0.648-0.961c0.051-0.011,0.1-0.015,0.148-0.015
				c0.004-0.127,0.037-0.254,0.102-0.373c0.221-0.396,0.719-0.539,1.115-0.318c0.045,0.023,0.086,0.052,0.123,0.083
				c0.084-0.095,0.191-0.171,0.318-0.219C91.402,35.877,91.876,36.088,92.04,36.511z"/>
			<path style="fill-rule:evenodd;clip-rule:evenodd;fill:#FFFFFF;" d="M93.71,31.166c0.018,0.047,0.031,0.096,0.041,0.143
				c0.125-0.018,0.256-0.007,0.383,0.037c0.43,0.147,0.656,0.614,0.51,1.042c-0.018,0.049-0.037,0.093-0.063,0.136
				c0.107,0.066,0.201,0.158,0.272,0.275c0.232,0.389,0.107,0.893-0.279,1.125c-0.043,0.026-0.088,0.048-0.135,0.065
				c0.039,0.12,0.051,0.251,0.029,0.385c-0.07,0.446-0.49,0.753-0.938,0.682c-0.049-0.009-0.098-0.021-0.145-0.037
				c-0.047,0.118-0.121,0.227-0.223,0.316c-0.342,0.297-0.861,0.26-1.158-0.082c-0.031-0.037-0.061-0.077-0.086-0.12
				c-0.111,0.06-0.238,0.095-0.373,0.097c-0.453,0.009-0.826-0.353-0.836-0.805c0-0.051,0.004-0.1,0.012-0.148
				c-0.123-0.026-0.242-0.082-0.348-0.166c-0.354-0.285-0.406-0.802-0.123-1.153c0.033-0.04,0.068-0.075,0.105-0.106
				c-0.078-0.1-0.137-0.219-0.16-0.352c-0.088-0.444,0.203-0.875,0.646-0.962c0.051-0.009,0.1-0.015,0.15-0.015
				c0.002-0.127,0.037-0.254,0.102-0.372c0.219-0.396,0.719-0.539,1.115-0.319c0.045,0.025,0.086,0.053,0.123,0.083
				c0.082-0.095,0.191-0.17,0.316-0.218C93.074,30.531,93.548,30.743,93.71,31.166z"/>
			<path style="fill-rule:evenodd;clip-rule:evenodd;fill:#FFFFFF;" d="M97.874,25.984c0.049-0.01,0.098-0.024,0.143-0.041
				c0.051,0.115,0.129,0.221,0.234,0.306c0.352,0.284,0.869,0.231,1.154-0.122c0.031-0.039,0.059-0.08,0.082-0.123
				c0.113,0.057,0.242,0.087,0.375,0.084c0.455-0.008,0.814-0.381,0.807-0.834c0-0.051-0.006-0.1-0.016-0.148
				c0.123-0.029,0.24-0.088,0.342-0.177c0.342-0.298,0.379-0.815,0.08-1.157c-0.033-0.039-0.066-0.072-0.105-0.104
				c0.074-0.102,0.127-0.223,0.148-0.355c0.07-0.447-0.234-0.869-0.682-0.94c-0.051-0.008-0.1-0.011-0.149-0.01
				c-0.01-0.126-0.047-0.252-0.117-0.368c-0.232-0.388-0.736-0.513-1.123-0.279c-0.045,0.025-0.086,0.055-0.121,0.088
				c-0.088-0.093-0.197-0.165-0.326-0.208c-0.428-0.148-0.895,0.08-1.043,0.508c-0.016,0.048-0.027,0.096-0.035,0.144
				c-0.125-0.014-0.256,0.001-0.381,0.05c-0.424,0.162-0.635,0.636-0.473,1.06c0.018,0.048,0.041,0.092,0.064,0.134
				c-0.104,0.07-0.195,0.166-0.26,0.284c-0.221,0.395-0.076,0.895,0.318,1.115c0.045,0.024,0.092,0.044,0.137,0.06
				c-0.035,0.122-0.041,0.253-0.018,0.386C96.999,25.781,97.429,26.07,97.874,25.984z"/>
			<path style="fill-rule:evenodd;clip-rule:evenodd;fill:#FFFFFF;" d="M94.226,30.234c0.051-0.01,0.098-0.024,0.143-0.042
				c0.051,0.116,0.131,0.221,0.236,0.307c0.352,0.285,0.867,0.229,1.152-0.122c0.031-0.039,0.059-0.08,0.084-0.123
				c0.113,0.057,0.242,0.087,0.375,0.084c0.453-0.009,0.814-0.382,0.807-0.834c-0.002-0.051-0.006-0.101-0.016-0.148
				c0.121-0.03,0.24-0.09,0.342-0.177c0.342-0.298,0.379-0.815,0.082-1.157c-0.035-0.039-0.07-0.072-0.107-0.104
				c0.074-0.103,0.127-0.223,0.146-0.355c0.07-0.448-0.234-0.869-0.682-0.94c-0.049-0.008-0.1-0.011-0.148-0.01
				c-0.008-0.125-0.045-0.252-0.115-0.367c-0.232-0.389-0.736-0.515-1.125-0.281c-0.045,0.025-0.084,0.056-0.121,0.088
				c-0.086-0.092-0.197-0.164-0.324-0.207c-0.428-0.148-0.897,0.079-1.043,0.508c-0.016,0.048-0.027,0.096-0.035,0.145
				c-0.125-0.015-0.256,0.001-0.383,0.05c-0.422,0.163-0.635,0.637-0.471,1.06c0.018,0.047,0.039,0.092,0.064,0.134
				c-0.105,0.07-0.195,0.166-0.26,0.284c-0.221,0.396-0.076,0.894,0.318,1.115c0.045,0.024,0.09,0.043,0.137,0.06
				c-0.035,0.121-0.043,0.253-0.018,0.385C93.351,30.03,93.783,30.32,94.226,30.234z"/>
			
				<ellipse transform="matrix(-0.4087 -0.9127 0.9127 -0.4087 120.5826 157.4576)" style="fill-rule:evenodd;clip-rule:evenodd;fill:#FFD8B8;" cx="111.301" cy="39.665" rx="19.555" ry="20.202"/>
			<path style="fill-rule:evenodd;clip-rule:evenodd;fill:#E7B791;" d="M131.376,38.178c0.506-0.549,1.014,1.294,0.514,2.438
				c0.254,1.041,0.049,1.705-0.303,1.94C130.554,43.252,128.796,41.562,131.376,38.178z"/>
			<path style="fill-rule:evenodd;clip-rule:evenodd;fill:#F2F8FA;" d="M87.964,70.903c1.236,0.724,14.902-2.128,19.094,2.855
				c-0.635,1.914-1.553,3.813-2.736,5.413l-11.994,17.44l-3.986-1.331l-7.48-2.287L87.964,70.903z"/>
			<path style="fill-rule:evenodd;clip-rule:evenodd;fill:#FFF4C7;" d="M119.433,21.496c-5.428,1.68-12.992,23.434-11.807,37.586
				c-6.344-1.011-12.004-4.998-14.764-11.161c-4.414-9.856,0.264-21.544,10.447-26.103
				C108.667,19.419,114.482,19.472,119.433,21.496z"/>
			
				<ellipse transform="matrix(-0.6043 -0.7968 0.7968 -0.6043 137.4833 158.3687)" style="fill-rule:evenodd;clip-rule:evenodd;fill:#FFD8B8;" cx="108.071" cy="45.042" rx="5.762" ry="3.688"/>
			<path style="fill-rule:evenodd;clip-rule:evenodd;fill:#D9E0E2;" d="M91.468,16.857c-13.969,22.826-16.096,46.569-8.227,74.156
				c-18.359,5.116-31.24,4.569-45.342-3.799C40.714,61.167,60.835,6.227,91.468,16.857z"/>
			
				<ellipse transform="matrix(0.9943 -0.1069 0.1069 0.9943 -19.0925 9.7132)" style="fill-rule:evenodd;clip-rule:evenodd;fill:#CAD3D7;" cx="81.082" cy="182.998" rx="4.213" ry="8.387"/>
			<g>
				<path style="fill-rule:evenodd;clip-rule:evenodd;fill:#FFD8B8;" d="M102.173,71.813c-10.275,6.738-23.576,18.901-31.572,31.938
					l-3.527-2.268c5.83-13.141,18.375-29.373,25.672-35.474C101.462,58.723,112.538,65.014,102.173,71.813z"/>
				<path style="fill-rule:evenodd;clip-rule:evenodd;fill:#FFD8B8;" d="M71.136,106.699c-0.877,1.438-1.83,1.443-2.566,0.505
					c-1.02,2.28-3.525,3.128-4.645,2.445c-2.178-1.328-2.479-4.804-0.674-7.762c1.805-2.959,5.033-4.28,7.211-2.952
					C72.64,100.266,72.943,103.74,71.136,106.699z"/>
			</g>
			<path style="fill-rule:evenodd;clip-rule:evenodd;fill:#666666;" d="M123.617,34.014c1.729,1.87,6.059-0.435,4.748-2.523
				C128.382,33.175,125.021,34.371,123.617,34.014z"/>
		</g>
		<g>
			<circle style="fill-rule:evenodd;clip-rule:evenodd;fill:#FFD8B8;" cx="95.677" cy="62.357" r="0.59"/>
			<circle style="fill-rule:evenodd;clip-rule:evenodd;fill:#FFD8B8;" cx="98.428" cy="63.66" r="0.59"/>
			<circle style="fill-rule:evenodd;clip-rule:evenodd;fill:#FFD8B8;" cx="101.18" cy="64.963" r="0.59"/>
			<circle style="fill-rule:evenodd;clip-rule:evenodd;fill:#FFD8B8;" cx="103.931" cy="66.266" r="0.59"/>
			<circle style="fill-rule:evenodd;clip-rule:evenodd;fill:#FFD8B8;" cx="106.683" cy="67.569" r="0.59"/>
			<path style="fill-rule:evenodd;clip-rule:evenodd;fill:#FFD8B8;" d="M93.626,63.133c0.293,0.139,0.42,0.491,0.279,0.786
				c-0.139,0.294-0.49,0.42-0.785,0.28c-0.27-0.127-0.399-0.434-0.311-0.711l0.256-0.326C93.23,63.063,93.439,63.044,93.626,63.133z
				"/>
			<circle style="fill-rule:evenodd;clip-rule:evenodd;fill:#FFD8B8;" cx="96.123" cy="64.969" r="0.591"/>
			<circle style="fill-rule:evenodd;clip-rule:evenodd;fill:#FFD8B8;" cx="98.875" cy="66.272" r="0.591"/>
			<circle style="fill-rule:evenodd;clip-rule:evenodd;fill:#FFD8B8;" cx="101.627" cy="67.576" r="0.591"/>
			<circle style="fill-rule:evenodd;clip-rule:evenodd;fill:#FFD8B8;" cx="104.378" cy="68.878" r="0.59"/>
			<circle style="fill-rule:evenodd;clip-rule:evenodd;fill:#FFD8B8;" cx="107.129" cy="70.182" r="0.59"/>
			<path style="fill-rule:evenodd;clip-rule:evenodd;fill:#FFD8B8;" d="M95.743,60.033c-0.043,0.074-0.102,0.136-0.168,0.184
				L95.743,60.033z"/>
			<circle style="fill-rule:evenodd;clip-rule:evenodd;fill:#FFD8B8;" cx="97.987" cy="61.038" r="0.591"/>
			<circle style="fill-rule:evenodd;clip-rule:evenodd;fill:#FFD8B8;" cx="100.738" cy="62.341" r="0.59"/>
			<circle style="fill-rule:evenodd;clip-rule:evenodd;fill:#FFD8B8;" cx="103.489" cy="63.644" r="0.59"/>
			<circle style="fill-rule:evenodd;clip-rule:evenodd;fill:#FFD8B8;" cx="106.241" cy="64.947" r="0.591"/>
			<path style="fill-rule:evenodd;clip-rule:evenodd;fill:#FFD8B8;" d="M108.829,66.816c-0.031-0.008-0.061-0.02-0.09-0.033
				c-0.295-0.14-0.42-0.492-0.281-0.786c0.072-0.151,0.199-0.257,0.346-0.307C108.833,66.041,108.841,66.418,108.829,66.816z"/>
			<path style="fill-rule:evenodd;clip-rule:evenodd;fill:#FFD8B8;" d="M94.003,65.89c0.295,0.14,0.422,0.491,0.281,0.786
				c-0.1,0.21-0.307,0.334-0.525,0.337c-0.111-0.058-0.225-0.114-0.34-0.17l-0.139-0.063c-0.129-0.17-0.16-0.403-0.063-0.609
				C93.357,65.875,93.71,65.75,94.003,65.89z"/>
			<circle style="fill-rule:evenodd;clip-rule:evenodd;fill:#FFD8B8;" cx="96.503" cy="67.726" r="0.59"/>
			<circle style="fill-rule:evenodd;clip-rule:evenodd;fill:#FFD8B8;" cx="99.254" cy="69.029" r="0.591"/>
			<circle style="fill-rule:evenodd;clip-rule:evenodd;fill:#FFD8B8;" cx="102.006" cy="70.332" r="0.59"/>
			<path style="fill-rule:evenodd;clip-rule:evenodd;fill:#FFD8B8;" d="M105.009,71.102c0.295,0.14,0.422,0.491,0.281,0.786
				c-0.066,0.14-0.18,0.241-0.313,0.294c-0.248-0.123-0.506-0.238-0.775-0.343c-0.053-0.144-0.049-0.308,0.021-0.456
				C104.363,71.088,104.716,70.962,105.009,71.102z"/>
			<path style="fill-rule:evenodd;clip-rule:evenodd;fill:#FFD8B8;" d="M91.591,65.132c-0.002,0.081-0.021,0.163-0.059,0.24
				c-0.066,0.142-0.184,0.245-0.318,0.298C91.337,65.49,91.464,65.311,91.591,65.132z"/>
			<path style="fill-rule:evenodd;clip-rule:evenodd;fill:#FFD8B8;" d="M107.327,73.5c-0.023-0.009-0.049-0.018-0.072-0.028
				c-0.293-0.14-0.42-0.491-0.279-0.786c0.133-0.281,0.459-0.408,0.746-0.298C107.599,72.758,107.468,73.129,107.327,73.5z"/>
			<path style="fill-rule:evenodd;clip-rule:evenodd;fill:#FFD8B8;" d="M97.202,69.805c0.295,0.139,0.42,0.491,0.281,0.786
				l-0.006,0.013c-0.148-0.291-0.322-0.577-0.52-0.855C97.04,69.749,97.124,69.768,97.202,69.805z"/>
		</g>
		<path style="fill-rule:evenodd;clip-rule:evenodd;fill:#FFF4C7;" d="M125.333,66.236c-5.068-0.783-8.094-5.334-6.443-9.261
			c1.65-3.927,1.43-6.624-2.297-9.031c-3.725-2.407-4.631-6.742-1.785-9.147c2.844-2.405,4.598-2.812,2.752-7.055
			c-1.844-4.242-2.766-7.941,1.818-10.298c-6.182,1.838-9.92,1.631-9.314,8.645c0.605,7.015-0.771,4.188-1.941,7
			c-1.17,2.812,0.818,9.886,5.1,12.292c4.279,2.407,4.949,3.91,3.299,7.836C114.87,61.143,117.755,67.189,125.333,66.236z"/>
		<g>
			<path style="fill-rule:evenodd;clip-rule:evenodd;fill:#F2F8FA;" d="M89.117,91.805c11.508,5.139,9.422,15.494,8.287,21.323
				c-1.137,5.839-3.855,11.7,1.621,15.892c7.258,5.555,6.168,12.342-0.379,20.853c-4.086,5.313-3.133,7.395,1.666,13.892
				c3.336,4.518,1.406,14.407-6.115,15.91c-7.521,1.502-24.047-3.305-42.006-10.564c-18.326-7.407-34.217-15.687-38.119-22.905
				c-3.902-7.218,1.291-14.037,7.457-14.388c8.863-0.505,11.889-1.396,14.422-7.614c3.611-8.862,9.092-14.9,16.863-14.866
				c7.342-0.015,10.045-5.937,13.799-10.498C70.353,94.296,77.609,86.665,89.117,91.805z"/>
			<path style="fill-rule:evenodd;clip-rule:evenodd;fill:#F2F8FA;" d="M88.974,92.036c9.08,3.979,7.748,12.063,6.156,17.97
				c-1.598,5.926-4.498,11.986-0.422,15.768c5.41,5.016,3.726,11.965-2.662,21.048c-3.973,5.646-3.398,7.657-0.197,13.988
				c2.231,4.411-0.5,14.649-6.834,16.586c-6.332,1.937-19.318-2.03-33.512-7.638c-14.43-5.701-26.979-12.345-29.797-17.439
				c-2.818-5.094,2.65-14.429,7.924-15.821c7.598-2.006,10.205-3.059,12.979-9.51c3.941-9.166,9.16-15.713,15.678-16.505
				c6.143-0.778,9.021-6.869,12.646-11.747C74.531,93.893,79.896,88.056,88.974,92.036z"/>
			<path style="fill-rule:evenodd;clip-rule:evenodd;fill:#F2F8FA;" d="M89.126,91.57c7.359,3.279,5.545,10.56,3.736,16.48
				c-1.816,5.939-4.721,12.083-1.613,15.593c4.143,4.681,2.146,11.684-3.926,21.038c-3.777,5.82-3.467,7.811-1.299,13.97
				c1.508,4.287-1.605,14.655-7.039,16.84s-15.904-1.3-27.42-5.918c-11.662-4.677-21.867-9.854-23.904-14.419
				c-2.039-4.564,3.346-14.552,7.937-16.427c6.586-2.69,8.861-3.904,11.693-10.439c4.014-9.263,8.916-16.059,14.473-17.317
				c5.244-1.182,8.131-7.35,11.565-12.362C76.743,93.624,81.769,88.291,89.126,91.57z"/>
			<path style="fill-rule:evenodd;clip-rule:evenodd;fill:#F2F8FA;" d="M88.224,90.878c6.504,3.01,2.856,7.627,0.662,13.562
				c-2.205,5.971-5.15,12.273-3.711,15.264c1.922,3.986-0.592,11.08-6.127,20.931c-3.445,6.135-3.564,8.039-3.223,13.833
				c0.238,4.063-3.545,14.598-7.398,17.293c-3.852,2.695-9.961,0.324-16.75-2.498c-6.838-2.842-12.863-5.783-13.51-9.672
				c-0.644-3.888,4.563-14.508,7.93-17.135c4.813-3.757,6.508-5.259,9.43-11.917c4.143-9.433,8.477-16.638,12.352-18.694
				C75.197,107.989,81.72,87.869,88.224,90.878z"/>
			<path style="fill-rule:evenodd;clip-rule:evenodd;fill:#F2F8FA;" d="M88.304,89.747c3.646,1.71,0.488,6.651-1.941,12.579
				c-2.441,5.964-5.408,12.362-5.02,14.961c0.52,3.485-2.311,10.597-7.518,20.773c-3.227,6.306-3.637,8.123-4.432,13.607
				c-0.561,3.867-3.797,13.429-7.609,17.507c-3.813,4.079-17.289-2.227-16.98-6.898c0.307-4.673,5.324-14.372,7.92-17.426
				c3.682-4.332,5.006-6.015,7.99-12.736c4.207-9.479,8.188-16.918,11.004-19.468C77.031,107.851,84.658,88.038,88.304,89.747z"/>
		</g>
		
			<ellipse transform="matrix(0.2256 -0.9742 0.9742 0.2256 101.6433 197.1045)" style="fill-rule:evenodd;clip-rule:evenodd;fill:#FFD8B8;" cx="174.807" cy="34.615" rx="5.761" ry="3.686"/>
	</g>
</g>
<g>
</g>
<g>
</g>
<g>
</g>
<g>
</g>
<g>
</g>
<g>
</g>
<g>
</g>
<g>
</g>
<g>
</g>
<g>
</g>
<g>
</g>
<g>
</g>
<g>
</g>
<g>
</g>
<g>
</g>
</svg>
