<?xml version="1.0"?>
<svg xmlns="http://www.w3.org/2000/svg" height="512px" viewBox="0 0 481 481.888" width="512px" class=""><g><path d="m408.445312 104v80h32v-176h-304v32h208zm0 0" fill="#9bc9ff" data-original="#9BC9FF" class="" style="fill:#FFA9B5" data-old_color="#ffa9b5"/><path d="m344.445312 104h64l-64-64zm0 0" fill="#9bc9ff" data-original="#9BC9FF" class="" style="fill:#FFA9B5" data-old_color="#ffa9b5"/><path d="m456.445312 184h-160c-8.835937 0-16 7.164062-16 16v272h192v-272c0-8.835938-7.164062-16-16-16zm-120 256c0 4.417969-3.582031 8-8 8h-16c-4.417968 0-8-3.582031-8-8v-16c0-4.417969 3.582032-8 8-8h16c4.417969 0 8 3.582031 8 8zm0-56c0 4.417969-3.582031 8-8 8h-16c-4.417968 0-8-3.582031-8-8v-16c0-4.417969 3.582032-8 8-8h16c4.417969 0 8 3.582031 8 8zm0-56c0 4.417969-3.582031 8-8 8h-16c-4.417968 0-8-3.582031-8-8v-16c0-4.417969 3.582032-8 8-8h16c4.417969 0 8 3.582031 8 8zm56 112c0 4.417969-3.582031 8-8 8h-16c-4.417968 0-8-3.582031-8-8v-16c0-4.417969 3.582032-8 8-8h16c4.417969 0 8 3.582031 8 8zm0-56c0 4.417969-3.582031 8-8 8h-16c-4.417968 0-8-3.582031-8-8v-16c0-4.417969 3.582032-8 8-8h16c4.417969 0 8 3.582031 8 8zm0-56c0 4.417969-3.582031 8-8 8h-16c-4.417968 0-8-3.582031-8-8v-16c0-4.417969 3.582032-8 8-8h16c4.417969 0 8 3.582031 8 8zm56 112c0 4.417969-3.582031 8-8 8h-16c-4.417968 0-8-3.582031-8-8v-16c0-4.417969 3.582032-8 8-8h16c4.417969 0 8 3.582031 8 8zm0-56c0 4.417969-3.582031 8-8 8h-16c-4.417968 0-8-3.582031-8-8v-16c0-4.417969 3.582032-8 8-8h16c4.417969 0 8 3.582031 8 8zm0-56c0 4.417969-3.582031 8-8 8h-16c-4.417968 0-8-3.582031-8-8v-16c0-4.417969 3.582032-8 8-8h16c4.417969 0 8 3.582031 8 8zm0-72h-144v-48h144zm0 0" fill="#9bc9ff" data-original="#9BC9FF" class="" style="fill:#FFA9B5" data-old_color="#ffa9b5"/><path d="m8.445312 152h64v-32h-64zm0 0" fill="#9bc9ff" data-original="#9BC9FF" class="" style="fill:#FFA9B5" data-old_color="#ffa9b5"/><path d="m40.445312 392v-240h-32v248l16-24 16 16 16-16 16 24v-248h-32zm0 0" fill="#9bc9ff" data-original="#9BC9FF" class="" style="fill:#FFA9B5" data-old_color="#ffa9b5"/><g fill="#1e81ce"><path d="m456.445312 176h-8v-176h-320v32h-32v432h176v16h208v-280c0-13.253906-10.746093-24-24-24zm-312-160h288v160h-16v-75.3125l-68.6875-68.6875h-203.3125zm208 43.3125 36.6875 36.6875h-36.6875zm-240 388.6875v-400h224v64h64v64h-104c-13.257812 0-24 10.746094-24 24v248zm352 16h-176v-264c0-4.417969 3.582032-8 8-8h160c4.417969 0 8 3.582031 8 8zm0 0" data-original="#000000" class="active-path" style="fill:#FF8697" data-old_color="#ff8697"/><path d="m296.445312 264h160v-64h-160zm16-48h128v32h-128zm0 0" data-original="#000000" class="active-path" style="fill:#FF8697" data-old_color="#ff8697"/><path d="m328.445312 296h-16c-8.835937 0-16 7.164062-16 16v16c0 8.835938 7.164063 16 16 16h16c8.835938 0 16-7.164062 16-16v-16c0-8.835938-7.164062-16-16-16zm-16 32v-16h16v16zm0 0" data-original="#000000" class="active-path" style="fill:#FF8697" data-old_color="#ff8697"/><path d="m384.445312 296h-16c-8.835937 0-16 7.164062-16 16v16c0 8.835938 7.164063 16 16 16h16c8.835938 0 16-7.164062 16-16v-16c0-8.835938-7.164062-16-16-16zm-16 32v-16h16v16zm0 0" data-original="#000000" class="active-path" style="fill:#FF8697" data-old_color="#ff8697"/><path d="m440.445312 296h-16c-8.835937 0-16 7.164062-16 16v16c0 8.835938 7.164063 16 16 16h16c8.835938 0 16-7.164062 16-16v-16c0-8.835938-7.164062-16-16-16zm-16 32v-16h16v16zm0 0" data-original="#000000" class="active-path" style="fill:#FF8697" data-old_color="#ff8697"/><path d="m328.445312 352h-16c-8.835937 0-16 7.164062-16 16v16c0 8.835938 7.164063 16 16 16h16c8.835938 0 16-7.164062 16-16v-16c0-8.835938-7.164062-16-16-16zm-16 32v-16h16v16zm0 0" data-original="#000000" class="active-path" style="fill:#FF8697" data-old_color="#ff8697"/><path d="m384.445312 352h-16c-8.835937 0-16 7.164062-16 16v16c0 8.835938 7.164063 16 16 16h16c8.835938 0 16-7.164062 16-16v-16c0-8.835938-7.164062-16-16-16zm-16 32v-16h16v16zm0 0" data-original="#000000" class="active-path" style="fill:#FF8697" data-old_color="#ff8697"/><path d="m440.445312 352h-16c-8.835937 0-16 7.164062-16 16v16c0 8.835938 7.164063 16 16 16h16c8.835938 0 16-7.164062 16-16v-16c0-8.835938-7.164062-16-16-16zm-16 32v-16h16v16zm0 0" data-original="#000000" class="active-path" style="fill:#FF8697" data-old_color="#ff8697"/><path d="m328.445312 408h-16c-8.835937 0-16 7.164062-16 16v16c0 8.835938 7.164063 16 16 16h16c8.835938 0 16-7.164062 16-16v-16c0-8.835938-7.164062-16-16-16zm-16 32v-16h16v16zm0 0" data-original="#000000" class="active-path" style="fill:#FF8697" data-old_color="#ff8697"/><path d="m384.445312 408h-16c-8.835937 0-16 7.164062-16 16v16c0 8.835938 7.164063 16 16 16h16c8.835938 0 16-7.164062 16-16v-16c0-8.835938-7.164062-16-16-16zm-16 32v-16h16v16zm0 0" data-original="#000000" class="active-path" style="fill:#FF8697" data-old_color="#ff8697"/><path d="m440.445312 408h-16c-8.835937 0-16 7.164062-16 16v16c0 8.835938 7.164063 16 16 16h16c8.835938 0 16-7.164062 16-16v-16c0-8.835938-7.164062-16-16-16zm-16 32v-16h16v16zm0 0" data-original="#000000" class="active-path" style="fill:#FF8697" data-old_color="#ff8697"/><path d="m40.445312 48c-22.082031.027344-39.976562 17.917969-40 40v313.886719l40 80 40-80v-313.886719c-.027343-22.082031-17.921874-39.972656-40-40zm-8 324.6875-9.242187-9.238281-6.757813 10.152343v-213.601562h16zm-14.769531 27.886719 8-12 14.769531 14.738281 14.757813-14.761719 8 12-22.757813 45.5625zm46.769531-26.972657-6.761718-10.136718-9.238282 9.222656v-212.6875h16zm0-229.601562h-48v-16h48zm-48-32v-24c0-13.253906 10.742188-24 24-24 13.253907 0 24 10.746094 24 24v24zm0 0" data-original="#000000" class="active-path" style="fill:#FF8697" data-old_color="#ff8697"/><path d="m144.445312 112h16v16h-16zm0 0" data-original="#000000" class="active-path" style="fill:#FF8697" data-old_color="#ff8697"/><path d="m176.445312 112h128v16h-128zm0 0" data-original="#000000" class="active-path" style="fill:#FF8697" data-old_color="#ff8697"/><path d="m144.445312 144h16v16h-16zm0 0" data-original="#000000" class="active-path" style="fill:#FF8697" data-old_color="#ff8697"/><path d="m176.445312 144h128v16h-128zm0 0" data-original="#000000" class="active-path" style="fill:#FF8697" data-old_color="#ff8697"/><path d="m144.445312 176h16v16h-16zm0 0" data-original="#000000" class="active-path" style="fill:#FF8697" data-old_color="#ff8697"/><path d="m176.445312 176h80v16h-80zm0 0" data-original="#000000" class="active-path" style="fill:#FF8697" data-old_color="#ff8697"/><path d="m144.445312 208h16v16h-16zm0 0" data-original="#000000" class="active-path" style="fill:#FF8697" data-old_color="#ff8697"/><path d="m176.445312 208h80v16h-80zm0 0" data-original="#000000" class="active-path" style="fill:#FF8697" data-old_color="#ff8697"/><path d="m144.445312 240h16v16h-16zm0 0" data-original="#000000" class="active-path" style="fill:#FF8697" data-old_color="#ff8697"/><path d="m176.445312 240h80v16h-80zm0 0" data-original="#000000" class="active-path" style="fill:#FF8697" data-old_color="#ff8697"/><path d="m144.445312 272h16v16h-16zm0 0" data-original="#000000" class="active-path" style="fill:#FF8697" data-old_color="#ff8697"/><path d="m176.445312 272h80v16h-80zm0 0" data-original="#000000" class="active-path" style="fill:#FF8697" data-old_color="#ff8697"/><path d="m144.445312 304h16v16h-16zm0 0" data-original="#000000" class="active-path" style="fill:#FF8697" data-old_color="#ff8697"/><path d="m176.445312 304h80v16h-80zm0 0" data-original="#000000" class="active-path" style="fill:#FF8697" data-old_color="#ff8697"/><path d="m144.445312 336h16v16h-16zm0 0" data-original="#000000" class="active-path" style="fill:#FF8697" data-old_color="#ff8697"/><path d="m176.445312 336h80v16h-80zm0 0" data-original="#000000" class="active-path" style="fill:#FF8697" data-old_color="#ff8697"/><path d="m176.445312 368h16v16h-16zm0 0" data-original="#000000" class="active-path" style="fill:#FF8697" data-old_color="#ff8697"/><path d="m208.445312 368h16v16h-16zm0 0" data-original="#000000" class="active-path" style="fill:#FF8697" data-old_color="#ff8697"/><path d="m240.445312 368h16v16h-16zm0 0" data-original="#000000" class="active-path" style="fill:#FF8697" data-old_color="#ff8697"/></g></g> </svg>
