<svg height="480pt" viewBox="-31 0 479 480" width="480pt" xmlns="http://www.w3.org/2000/svg"><path d="m96.5 480h248c39.746094-.042969 71.957031-32.253906 72-72v-360c0-4.417969-3.582031-8-8-8h-56v-32c0-4.417969-3.582031-8-8-8h-336c-4.417969 0-8 3.582031-8 8v376c.058594 52.996094 43.003906 95.941406 96 96zm272-424v360c0 4.417969 3.582031 8 8 8s8-3.582031 8-8v-360h16v352c-.035156 27.824219-20.464844 51.417969-48 55.433594v-407.433594zm-352-40h320v448h-240c-44.164062-.046875-79.953125-35.835938-80-80zm0 0"/><path d="m48.5 176h80c4.417969 0 8-3.582031 8-8v-55.753906l21.199219-18.175782c2.296875-1.820312 3.414062-4.75 2.910156-7.636718-.5-2.886719-2.539063-5.265625-5.316406-6.207032-2.773438-.941406-5.839844-.285156-7.992188 1.703126l-10.800781 9.269531v-3.199219c0-4.417969-3.582031-8-8-8h-80c-4.417969 0-8 3.582031-8 8v80c0 4.417969 3.582031 8 8 8zm8-80h64v8.894531l-23.574219 20.210938-10.769531-10.761719c-3.140625-3.03125-8.128906-2.988281-11.214844.097656-3.085937 3.085938-3.128906 8.074219-.097656 11.214844l16 16c2.957031 2.949219 7.683594 3.132812 10.855469.414062l18.800781-16.109374v34.039062h-64zm0 0"/><path d="m48.5 288h80c4.417969 0 8-3.582031 8-8v-80c0-4.417969-3.582031-8-8-8h-80c-4.417969 0-8 3.582031-8 8v80c0 4.417969 3.582031 8 8 8zm8-80h64v64h-64zm0 0"/><path d="m48.5 400h80c4.417969 0 8-3.582031 8-8v-55.753906l21.199219-18.175782c2.296875-1.820312 3.414062-4.75 2.910156-7.636718-.5-2.886719-2.539063-5.265625-5.316406-6.207032-2.773438-.941406-5.839844-.285156-7.992188 1.703126l-10.800781 9.269531v-3.199219c0-4.417969-3.582031-8-8-8h-80c-4.417969 0-8 3.582031-8 8v80c0 4.417969 3.582031 8 8 8zm8-80h64v8.894531l-23.574219 20.210938-10.769531-10.761719c-3.140625-3.03125-8.128906-2.988281-11.214844.097656-3.085937 3.085938-3.128906 8.074219-.097656 11.214844l16 16c2.957031 2.949219 7.683594 3.132812 10.855469.414062l18.800781-16.109374v34.039062h-64zm0 0"/><path d="m184.5 104h120c4.417969 0 8-3.582031 8-8s-3.582031-8-8-8h-120c-4.417969 0-8 3.582031-8 8s3.582031 8 8 8zm0 0"/><path d="m184.5 136h120c4.417969 0 8-3.582031 8-8s-3.582031-8-8-8h-120c-4.417969 0-8 3.582031-8 8s3.582031 8 8 8zm0 0"/><path d="m184.5 168h56c4.417969 0 8-3.582031 8-8s-3.582031-8-8-8h-56c-4.417969 0-8 3.582031-8 8s3.582031 8 8 8zm0 0"/><path d="m184.5 216h120c4.417969 0 8-3.582031 8-8s-3.582031-8-8-8h-120c-4.417969 0-8 3.582031-8 8s3.582031 8 8 8zm0 0"/><path d="m184.5 248h120c4.417969 0 8-3.582031 8-8s-3.582031-8-8-8h-120c-4.417969 0-8 3.582031-8 8s3.582031 8 8 8zm0 0"/><path d="m184.5 280h96c4.417969 0 8-3.582031 8-8s-3.582031-8-8-8h-96c-4.417969 0-8 3.582031-8 8s3.582031 8 8 8zm0 0"/><path d="m184.5 328h120c4.417969 0 8-3.582031 8-8s-3.582031-8-8-8h-120c-4.417969 0-8 3.582031-8 8s3.582031 8 8 8zm0 0"/><path d="m184.5 360h120c4.417969 0 8-3.582031 8-8s-3.582031-8-8-8h-120c-4.417969 0-8 3.582031-8 8s3.582031 8 8 8zm0 0"/><path d="m184.5 392h64c4.417969 0 8-3.582031 8-8s-3.582031-8-8-8h-64c-4.417969 0-8 3.582031-8 8s3.582031 8 8 8zm0 0"/></svg>