<svg height="512pt" viewBox="0 0 512 512" width="512pt" xmlns="http://www.w3.org/2000/svg"><path d="m71.972656 240.007812c-19.230468 0-37.320312-7.488281-50.917968-21.085937-28.066407-28.074219-28.066407-73.753906 0-101.824219 13.597656-13.601562 31.6875-21.089844 50.917968-21.089844 19.234375 0 37.3125 7.488282 50.90625 21.089844 13.597656 13.589844 21.09375 31.679688 21.09375 50.902344 0 19.230469-7.496094 37.320312-21.09375 50.910156-13.59375 13.609375-31.671875 21.097656-50.90625 21.097656zm0-127.992187c-14.957031 0-29.03125 5.824219-39.605468 16.398437-21.832032 21.832032-21.832032 57.363282 0 79.195313 10.574218 10.574219 24.648437 16.398437 39.605468 16.398437 14.960938 0 29.023438-5.824218 39.59375-16.398437 10.574219-10.578125 16.40625-24.640625 16.40625-39.601563 0-14.953124-5.832031-29.015624-16.40625-39.59375-10.570312-10.582031-24.632812-16.398437-39.59375-16.398437zm0 0"/><path d="m71.972656 208.007812c-10.6875 0-20.734375-4.167968-28.277344-11.710937-15.59375-15.59375-15.59375-40.976563 0-56.570313 7.542969-7.550781 17.589844-11.703124 28.277344-11.703124s20.738282 4.160156 28.28125 11.703124c15.59375 15.59375 15.59375 40.976563 0 56.570313-7.542968 7.542969-17.59375 11.710937-28.28125 11.710937zm0-63.984374c-6.414062 0-12.4375 2.496093-16.964844 7.015624-9.363281 9.359376-9.363281 24.585938 0 33.945313 9.0625 9.046875 24.871094 9.046875 33.933594 0 9.359375-9.359375 9.359375-24.585937 0-33.945313-4.527344-4.527343-10.550781-7.015624-16.96875-7.015624zm0 0"/><path d="m231.964844 369.953125c-2.046875 0-4.09375-.785156-5.65625-2.34375l-72.023438-72.035156c-3.128906-3.125-3.128906-8.183594 0-11.308594 3.128906-3.128906 8.183594-3.128906 11.3125 0l72.023438 72.03125c3.128906 3.128906 3.128906 8.183594 0 11.3125-1.558594 1.558594-3.605469 2.34375-5.65625 2.34375zm0 0"/><path d="m126.039062 264.015625c-2.050781 0-4.097656-.785156-5.65625-2.34375l-29.082031-29.070313c-3.125-3.128906-3.125-8.1875 0-11.3125 3.128907-3.128906 8.183594-3.128906 11.3125 0l29.082031 29.070313c3.125 3.128906 3.125 8.183594 0 11.3125-1.5625 1.558594-3.609374 2.34375-5.65625 2.34375zm0 0"/><path d="m231.972656 302.078125c-2.046875 0-4.09375-.78125-5.65625-2.34375l-38.0625-38.0625c-3.128906-3.128906-3.128906-8.183594 0-11.3125s8.183594-3.128906 11.3125 0l38.0625 38.066406c3.128906 3.125 3.128906 8.183594 0 11.308594-1.558594 1.5625-3.605468 2.34375-5.65625 2.34375zm0 0"/><path d="m160.007812 230.105469c-2.050781 0-4.097656-.785157-5.65625-2.34375l-29.113281-29.105469c-3.128906-3.128906-3.128906-8.183594 0-11.3125 3.128907-3.128906 8.183594-3.128906 11.3125 0l29.109375 29.105469c3.128906 3.125 3.128906 8.183593 0 11.3125-1.558594 1.558593-3.605468 2.34375-5.652344 2.34375zm0 0"/><path d="m71.964844 416.015625c-19.222656 0-37.3125-7.488281-50.910156-21.085937-28.074219-28.074219-28.074219-73.746094 0-101.824219 13.597656-13.601563 31.6875-21.089844 50.910156-21.089844 19.226562 0 37.3125 7.488281 50.914062 21.089844 28.070313 28.078125 28.070313 73.75 0 101.824219-13.601562 13.597656-31.6875 21.085937-50.914062 21.085937zm0-127.992187c-14.957032 0-29.023438 5.824218-39.597656 16.402343-21.832032 21.832031-21.832032 57.367188 0 79.191407 10.574218 10.574218 24.640624 16.398437 39.597656 16.398437 14.960937 0 29.023437-5.824219 39.601562-16.398437 21.832032-21.832032 21.832032-57.359376 0-79.191407-10.578125-10.585937-24.640625-16.402343-39.601562-16.402343zm0 0"/><path d="m71.964844 384.007812c-10.695313 0-20.742188-4.160156-28.285156-11.703124-15.59375-15.59375-15.59375-40.96875 0-56.5625 7.542968-7.550782 17.589843-11.710938 28.285156-11.710938 10.6875 0 20.746094 4.160156 28.289062 11.710938 15.59375 15.59375 15.59375 40.96875 0 56.5625-7.542968 7.542968-17.59375 11.703124-28.289062 11.703124zm0-63.976562c-6.421875 0-12.453125 2.496094-16.976563 7.023438-9.359375 9.359374-9.359375 24.578124 0 33.9375 9.066407 9.046874 24.890625 9.046874 33.953125 0 9.359375-9.359376 9.359375-24.578126 0-33.9375-4.527344-4.535157-10.558594-7.023438-16.976562-7.023438zm0 0"/><path d="m96.957031 293.089844c-2.046875 0-4.09375-.785156-5.65625-2.347656-3.125-3.125-3.125-8.183594 0-11.308594l171.082031-171.074219c3.128907-3.128906 8.183594-3.128906 11.3125 0 3.125 3.128906 3.125 8.183594 0 11.3125l-171.082031 171.070313c-1.558593 1.5625-3.605469 2.347656-5.65625 2.347656zm0 0"/><path d="m130.894531 327.03125c-2.046875 0-4.097656-.785156-5.65625-2.34375-3.128906-3.128906-3.128906-8.183594 0-11.3125l205.015625-205.015625c3.128906-3.128906 8.183594-3.128906 11.3125 0s3.128906 8.183594 0 11.3125l-205.015625 205.015625c-1.5625 1.558594-3.609375 2.34375-5.65625 2.34375zm0 0"/><path d="m335.910156 122.015625c-2.046875 0-4.097656-.785156-5.65625-2.34375-7.558594-7.558594-17.609375-11.726563-28.289062-11.726563-10.671875 0-20.710938 4.167969-28.269532 11.726563-3.128906 3.128906-8.183593 3.128906-11.3125 0-3.128906-3.128906-3.128906-8.183594 0-11.3125 10.574219-10.582031 24.640626-16.414063 39.582032-16.414063 14.953125 0 29.015625 5.832032 39.601562 16.414063 3.128906 3.128906 3.128906 8.183594 0 11.3125-1.558594 1.558594-3.609375 2.34375-5.65625 2.34375zm0 0"/><path d="m231.972656 158.078125c-4.421875 0-8-3.574219-8-8v-142.078125c0-4.425781 3.578125-8 8-8 4.425782 0 8 3.574219 8 8v142.078125c0 4.425781-3.574218 8-8 8zm0 0"/><path d="m487.972656 512c-4.421875 0-8-3.574219-8-8v-496c0-4.425781 3.578125-8 8-8 4.425782 0 8 3.574219 8 8v496c0 4.425781-3.574218 8-8 8zm0 0"/><path d="m503.972656 16h-272c-4.421875 0-8-3.574219-8-8s3.578125-8 8-8h272c4.425782 0 8 3.574219 8 8s-3.574218 8-8 8zm0 0"/><path d="m503.972656 136h-182.046875c-4.421875 0-8-3.574219-8-8s3.578125-8 8-8h182.046875c4.425782 0 8 3.574219 8 8s-3.574218 8-8 8zm0 0"/><path d="m503.972656 264h-272c-4.421875 0-8-3.574219-8-8s3.578125-8 8-8h272c4.425782 0 8 3.574219 8 8s-3.574218 8-8 8zm0 0"/><path d="m503.972656 392h-272c-4.421875 0-8-3.574219-8-8s3.578125-8 8-8h272c4.425782 0 8 3.574219 8 8s-3.574218 8-8 8zm0 0"/><path d="m231.972656 512c-4.421875 0-8-3.574219-8-8v-286.039062c0-4.425782 3.578125-8 8-8 4.425782 0 8 3.574218 8 8v286.039062c0 4.425781-3.574218 8-8 8zm0 0"/><path d="m503.972656 512h-272c-4.421875 0-8-3.574219-8-8s3.578125-8 8-8h272c4.425782 0 8 3.574219 8 8s-3.574218 8-8 8zm0 0"/><path d="m359.972656 512c-4.421875 0-8-3.574219-8-8v-496c0-4.425781 3.578125-8 8-8 4.425782 0 8 3.574219 8 8v496c0 4.425781-3.574218 8-8 8zm0 0"/><path d="m160.246094 262.105469c-4.425782 0-8.039063-3.578125-8.039063-8 0-4.425781 3.535157-8 7.949219-8h.089844c4.414062 0 8 3.574219 8 8 0 4.421875-3.585938 8-8 8zm0 0"/></svg>