<?xml version="1.0" encoding="iso-8859-1"?>
<!-- Generator: Adobe Illustrator 19.0.0, SVG Export Plug-In . SVG Version: 6.00 Build 0)  -->
<svg version="1.1" id="Capa_1" xmlns="http://www.w3.org/2000/svg" xmlns:xlink="http://www.w3.org/1999/xlink" x="0px" y="0px"
	 viewBox="0 0 512.001 512.001" style="enable-background:new 0 0 512.001 512.001;" xml:space="preserve">
<g>
	<g>
		<path d="M476.528,199.007c-8.241-7.675-18.904-11.893-30.221-12.022c16.01-49.445,4.415-105.962-34.788-145.165
			C384.55,14.852,348.694,0,310.555,0c-38.14,0-73.996,14.852-100.964,41.821c-52.865,52.866-55.523,137.21-7.986,193.251
			c-4.023,2.915-7.847,6.164-11.428,9.746l-67.309,67.309l-18.534-18.534L20.94,376.987l135.014,135.014l83.394-83.394
			l-27.552-27.552l18.253-18.253h90.657c25.028,0,48.557-9.746,66.253-27.443l90.754-90.754c8.825-8.824,13.562-20.558,13.34-33.038
			C490.834,219.088,485.675,207.526,476.528,199.007z M230.808,63.039c43.972-43.971,115.52-43.971,159.493,0
			c43.971,43.972,43.971,115.521,0,159.493c-6.571,6.57-13.814,12.236-21.64,16.946c-1.759-2.915-3.85-5.66-6.277-8.176
			c-8.668-8.981-20.315-13.928-32.795-13.928H256.43c-9.229,0-18.253,1.329-26.857,3.89
			C186.848,177.195,187.255,106.593,230.808,63.039z M155.954,469.564l-92.578-92.578l40.958-40.958l92.578,92.578L155.954,469.564z
			 M456.497,243.385l-90.755,90.754c-12.029,12.029-28.023,18.654-45.035,18.654H217.619l-27.042,27.042l-46.492-46.492
			l67.309-67.309c12.03-12.029,28.023-18.654,45.035-18.654h73.158c4.263,0,8.241,1.689,11.203,4.759
			c2.959,3.066,4.505,7.111,4.353,11.389c-0.293,8.263-7.601,14.984-16.288,14.984h-73.422v30.007h73.422
			c11.877,0,23.194-4.456,31.869-12.547c2.283-2.128,4.311-4.45,6.08-6.925l67.159-67.159c6.142-6.143,16.063-6.557,22.113-0.922
			c3.133,2.918,4.899,6.871,4.975,11.131C461.128,236.362,459.511,240.37,456.497,243.385z"/>
	</g>
</g>
<g>
	<g>
		<circle cx="155.817" cy="428.47" r="15.004"/>
	</g>
</g>
<g>
	<g>
		<path d="M329.749,155.314c-2.621,8.387-9.959,11.401-15.857,11.401c-5.11,0-9.304-2.229-12.449-5.766h11.926l5.241-13.104h-23.064
			c-0.262-1.835-0.392-3.67-0.392-5.635h21.884l5.241-13.104h-24.636c2.883-6.42,7.993-11.401,15.988-11.401
			c5.766,0,13.497,2.49,16.512,11.532l19.526-13.89c-5.897-12.187-19.001-20.312-35.512-20.312
			c-23.195,0-38.659,15.857-43.376,34.071h-5.241l-5.243,13.104h8.911c0.131,1.965,0.131,3.8,0.392,5.635h-4.061l-5.242,13.104
			h12.974c6.815,15.988,21.359,28.437,40.099,28.437c14.807,0,31.974-7.863,37.216-21.622L329.749,155.314z"/>
	</g>
</g>
<g>
</g>
<g>
</g>
<g>
</g>
<g>
</g>
<g>
</g>
<g>
</g>
<g>
</g>
<g>
</g>
<g>
</g>
<g>
</g>
<g>
</g>
<g>
</g>
<g>
</g>
<g>
</g>
<g>
</g>
</svg>
