<?xml version="1.0"?>
<svg xmlns="http://www.w3.org/2000/svg" xmlns:xlink="http://www.w3.org/1999/xlink" version="1.1" id="Capa_1" x="0px" y="0px" viewBox="0 0 512.002 512.002" style="enable-background:new 0 0 512.002 512.002;" xml:space="preserve" width="512px" height="512px" class=""><g><circle style="fill:#FFA9B5" cx="307.44" cy="150.051" r="150.05" data-original="#FFDB0C" class="" data-old_color="#ffa9b5"/><path style="fill:#FF8697" d="M457.485,150.05c0,82.87-67.179,150.049-150.049,150.049c0-77.217,0-270.165,0-300.099  C390.305,0.001,457.485,67.18,457.485,150.05z" data-original="#FBBF00" class="" data-old_color="#ff8697"/><path style="fill:#FFFFFF" d="M260.731,127.911c5.539-21.389,23.697-40.008,50.934-40.008c19.387,0,34.776,9.54,41.7,23.851  l-22.927,16.311c-3.54-10.617-12.618-13.541-19.389-13.541c-9.387,0-15.388,5.847-18.773,13.387h28.928l-6.155,15.387h-25.697  c0,2.308,0.154,4.462,0.461,6.617h27.083l-6.155,15.387h-14.004c3.693,4.154,8.617,6.771,14.619,6.771  c6.924,0,15.542-3.539,18.619-13.387l24.467,14.618c-6.155,16.157-26.313,25.39-43.7,25.39c-22.005,0-39.085-14.619-47.087-33.391  H248.42l6.156-15.387h4.769c-0.307-2.155-0.307-4.309-0.461-6.617H248.42l6.156-15.387L260.731,127.911L260.731,127.911z" data-original="#FF8800" class="" data-old_color="#FF8800"/><path style="fill:#FF8697" d="M241.232,308.779h85.165c19.227,0,35.602-14.951,36.285-34.165  c0.717-20.173-15.423-36.751-35.435-36.751h-84.859c-24.209,0-47.426,9.617-64.544,26.735l-90.379,90.379l78.539,78.539  l38.576-38.576h112.365c24.209,0,47.426-9.617,64.544-26.735l105.269-105.269c14.151-14.151,13.841-37.287-0.931-51.044  c-14.07-13.104-36.221-12.096-49.816,1.499l-78.656,78.656" data-original="#FEDCA9" class="" data-old_color="#ff8697"/><path style="fill:#FFCDD4" d="M485.827,211.891L350.473,347.245l-109.866,0.081l0.626-38.547h85.165  c12.639,0,24.045-6.462,30.572-16.348l79.041-79.041C449.606,199.795,471.757,198.787,485.827,211.891" data-original="#FEC674" class="" data-old_color="#ffcdd4"/><path style="fill:#FFCDD4" d="M83.584,321.797l121.48,121.48l-68.725,68.725l-121.48-121.48L83.584,321.797z" data-original="#08B7FC" class="" data-old_color="#ffcdd4"/><circle style="fill:#FFFFFF;" cx="142.38" cy="449.321" r="15" data-original="#FFFFFF" class=""/><g>
	<polygon style="fill:#FFFFFF" points="315.049,143.298 321.204,127.911 307.435,127.911 307.435,143.298  " data-original="#E47700" class="active-path" data-old_color="#E47700"/>
	<path style="fill:#FFFFFF" d="M311.048,114.523c6.771,0,15.849,2.924,19.389,13.541l22.927-16.311   c-6.924-14.31-22.313-23.851-41.7-23.851c-1.437,0-2.843,0.063-4.229,0.164v26.774   C308.581,114.638,309.781,114.523,311.048,114.523z" data-original="#E47700" class="active-path" data-old_color="#E47700"/>
	<polygon style="fill:#FFFFFF" points="310.741,165.303 316.896,149.915 307.435,149.915 307.435,165.303  " data-original="#E47700" class="active-path" data-old_color="#E47700"/>
</g><path style="fill:#FFFFFF" d="M296.737,165.303h10.698v-15.387h-17.623c-0.307-2.155-0.461-4.309-0.461-6.617h18.084v-15.388  h-15.16c2.928-6.522,7.818-11.77,15.16-13.07V88.067c-24.883,1.819-41.458,19.583-46.705,39.843h-6.155l-6.156,15.387h10.464  c0.154,2.308,0.154,4.462,0.461,6.617h-4.769l-6.156,15.387h15.235c7.596,17.821,23.376,31.888,43.781,33.27v-26.899  C303.183,170.798,299.591,168.513,296.737,165.303z" data-original="#FF8800" class="" data-old_color="#FF8800"/><path style="fill:#FFFFFF" d="M329.975,158.686c-3.077,9.848-11.695,13.387-18.619,13.387c-1.364,0-2.669-0.142-3.92-0.399v26.899  c1.09,0.074,2.19,0.121,3.306,0.121c17.387,0,37.546-9.233,43.7-25.39L329.975,158.686z" data-original="#E47700" class="active-path" data-old_color="#E47700"/></g> </svg>
