<?xml version="1.0" encoding="utf-8"?>
<!-- Generator: Adobe Illustrator 22.1.0, SVG Export Plug-In . SVG Version: 6.00 Build 0)  -->
<svg version="1.1" id="Calque_1" xmlns="http://www.w3.org/2000/svg" xmlns:xlink="http://www.w3.org/1999/xlink" x="0px" y="0px"
	 viewBox="0 0 426.7 512" style="enable-background:new 0 0 426.7 512;" xml:space="preserve">
<g>
	<g>
		<path d="M424.8,431.9l-36.7-61.1c-16.9-28.2-25.8-60.4-25.8-93.3V224c0-82.3-67-149.3-149.3-149.3S63.7,141.7,63.7,224v53.5
			c0,32.9-8.9,65.1-25.8,93.3L1.2,431.9c-2,3.3-2,7.4-0.1,10.7c1.9,3.3,5.5,5.4,9.3,5.4h405.3c3.8,0,7.4-2.1,9.3-5.4
			C426.8,439.3,426.8,435.1,424.8,431.9z M29.2,426.7l26.9-44.9C75,350.3,85,314.2,85,277.5V224c0-70.6,57.4-128,128-128
			s128,57.4,128,128v53.5c0,36.7,10,72.8,28.9,104.3l27,44.9L29.2,426.7L29.2,426.7z"/>
	</g>
</g>
<g>
	<g>
		<path d="M213,0c-23.5,0-42.7,19.1-42.7,42.7v42.7c0,5.9,4.8,10.7,10.7,10.7s10.7-4.8,10.7-10.7V42.7c0-11.8,9.6-21.3,21.3-21.3
			s21.3,9.6,21.3,21.3v42.7c0,5.9,4.8,10.7,10.7,10.7s10.7-4.8,10.7-10.7V42.7C255.7,19.1,236.5,0,213,0z"/>
	</g>
</g>
<g>
	<g>
		<path d="M259.2,431.9c-3-5.1-9.5-6.7-14.6-3.8c-5.1,3-6.8,9.5-3.8,14.6c2.8,4.7,4.3,10.4,4.3,15.9c0,17.6-14.4,32-32,32
			s-32-14.4-32-32c0-5.6,1.5-11.2,4.3-15.9c3-5.1,1.3-11.6-3.8-14.6c-5.1-2.9-11.6-1.3-14.6,3.8c-4.7,8.1-7.2,17.3-7.2,26.7
			c0,29.4,23.9,53.3,53.3,53.3s53.3-23.9,53.4-53.3C266.4,449.2,263.9,440,259.2,431.9z"/>
	</g>
</g>
</svg>
