<?xml version="1.0" encoding="iso-8859-1"?>
<!-- Generator: Adobe Illustrator 18.0.0, SVG Export Plug-In . SVG Version: 6.00 Build 0)  -->
<!DOCTYPE svg PUBLIC "-//W3C//DTD SVG 1.1//EN" "http://www.w3.org/Graphics/SVG/1.1/DTD/svg11.dtd">
<svg version="1.1" id="Capa_1" xmlns="http://www.w3.org/2000/svg" xmlns:xlink="http://www.w3.org/1999/xlink" x="0px" y="0px"
	 viewBox="0 0 417.161 417.161" style="enable-background:new 0 0 417.161 417.161;" xml:space="preserve">
<g>
	<g>
		<path d="M238.879,152.891c1.715-9.073,5.811-24.237,13.063-32.699c7.876-9.188,9.88-23.903,5.681-35.998l11.537-29.257
			c1.422-3.605-0.139-7.7-3.6-9.446l-29.615-14.945V7.5c0-4.143-3.357-7.5-7.5-7.5h-39.727c-4.143,0-7.5,3.357-7.5,7.5v23.045
			L151.601,45.49c-3.461,1.746-5.019,5.842-3.598,9.447l11.537,29.249c-4.202,12.097-2.198,26.814,5.68,36.005
			c7.684,8.968,11.604,24.477,13.147,32.681c-65.535,13.94-114.85,72.26-114.85,141.89v61.002c0,4.143,3.357,7.5,7.5,7.5H201.08
			v28.01c-0.62,6.495-6.356,11.34-12.884,10.854c-5.237-0.395-9.58-4.086-10.805-9.187c-0.967-4.027-5.014-6.507-9.044-5.542
			c-4.028,0.968-6.509,5.017-5.542,9.044c2.753,11.462,12.504,19.757,24.266,20.642c0.688,0.052,1.368,0.077,2.046,0.077
			c7.565,0,14.509-3.169,19.464-8.316c4.955,5.147,11.898,8.316,19.464,8.316c0.677,0,1.359-0.025,2.045-0.077
			c11.761-0.885,21.513-9.18,24.266-20.641c0.968-4.027-1.513-8.077-5.54-9.044c-4.027-0.971-8.077,1.513-9.044,5.54
			c-1.227,5.101-5.569,8.793-10.807,9.188c-6.539,0.487-12.262-4.359-12.885-10.854v-28.01h130.063c4.143,0,7.5-3.357,7.5-7.5
			v-61.002C353.644,225.162,304.371,166.863,238.879,152.891z M196.218,35.161V15h24.727v20.161c0,2.831,1.594,5.421,4.121,6.695
			l27.629,13.942l-5.414,13.728c-6.988-5.393-19.107-9.868-38.701-3.686c-19.592-6.182-31.709-1.708-38.697,3.684l-5.414-13.726
			l27.629-13.942C194.624,40.582,196.218,37.992,196.218,35.161z M176.608,110.43c-4.682-5.462-6.033-17.862-0.761-25.664
			c6.458-9.554,19.628-7.557,29.542-4.199c1.061,0.359,2.144,0.461,3.189,0.351c1.045,0.11,2.129,0.01,3.19-0.351
			c9.912-3.358,23.087-5.354,29.544,4.2c5.273,7.801,3.922,20.201-0.76,25.663c-10.404,12.14-14.833,30.684-16.496,40.096
			c-5.087-0.542-10.249-0.827-15.477-0.827c-5.228,0-10.39,0.285-15.476,0.827C191.441,141.113,187.013,122.569,176.608,110.43z
			 M338.644,348.264H78.518v-53.502c0-46.646,24.688-87.629,61.679-110.587c-14.844,20.447-29.758,55.241-28.778,112.078
			c0.07,4.098,3.414,7.371,7.496,7.371c0.044,0,0.088,0,0.132-0.001c4.142-0.071,7.441-3.486,7.37-7.628
			c-0.808-46.867,9.731-84.493,30.477-108.811c8.871-10.399,17.895-16.331,24.006-19.51c8.924-1.942,18.184-2.975,27.682-2.975
			c9.529,0,18.82,1.04,27.771,2.995c16.902,8.817,55.932,38.91,54.391,128.302c-0.071,4.142,3.229,7.557,7.37,7.628
			c0.044,0.001,0.087,0.001,0.132,0.001c4.081,0,7.426-3.273,7.496-7.371c0.98-56.839-13.934-91.633-28.777-112.079
			c36.992,22.958,61.681,63.941,61.681,110.588V348.264z"/>
	</g>
</g>
<g>
</g>
<g>
</g>
<g>
</g>
<g>
</g>
<g>
</g>
<g>
</g>
<g>
</g>
<g>
</g>
<g>
</g>
<g>
</g>
<g>
</g>
<g>
</g>
<g>
</g>
<g>
</g>
<g>
</g>
</svg>
