<?xml version="1.0" encoding="iso-8859-1"?>
<!-- Generator: Adobe Illustrator 19.0.0, SVG Export Plug-In . SVG Version: 6.00 Build 0)  -->
<svg version="1.1" id="Capa_1" xmlns="http://www.w3.org/2000/svg" xmlns:xlink="http://www.w3.org/1999/xlink" x="0px" y="0px"
	 viewBox="0 0 512 512" style="enable-background:new 0 0 512 512;" xml:space="preserve">
<g>
	<g>
		<path d="M494.565,468.607v-14.411c0-10.699-8.704-19.404-19.403-19.404h-3.302V197.053c0-39.834-14.929-77.904-42.039-107.197
			c-25.481-27.534-59.493-44.97-96.353-49.549c-3.276-22.644-22.782-40.122-46.329-40.173c-0.034,0-0.068,0-0.103,0
			c-11.568,0-22.471,4.166-30.962,11.652C247.593,4.242,236.668,0.025,225.062,0c-0.035,0-0.069,0-0.104,0
			c-23.615,0-43.217,17.549-46.442,40.308c-36.854,4.582-70.86,22.017-96.337,49.546c-27.11,29.293-42.04,67.364-42.04,107.199
			v244.205c-9.575,0.261-17.289,8.114-17.289,17.752v8.415c-10.057,0.711-18.026,9.099-18.026,19.334v17.713
			c0,4.157,3.37,7.528,7.528,7.528h104.287c4.158,0,7.528-3.37,7.528-7.528v-17.713c0-10.235-7.97-18.623-18.027-19.334v-8.415
			c0-9.638-7.713-17.491-17.289-17.752V197.053c0-58.349,46.464-106.532,104.33-109.132c5.965,7.736,13.648,15.147,22.98,22.109
			c18.177,13.56,36.159,20.715,36.915,21.013c0.886,0.349,1.822,0.523,2.758,0.523c0.925,0,1.851-0.171,2.728-0.512
			c0.758-0.295,18.77-7.372,37.006-20.854c9.471-7.002,17.255-14.471,23.282-22.278c57.848,2.617,104.298,50.8,104.298,109.131
			v237.739h-3.302c-10.7,0-19.404,8.704-19.404,19.404v14.411c-7.354,2.762-12.61,9.846-12.61,18.152v17.713
			c0,4.157,3.37,7.528,7.528,7.528h104.288c4.158,0,7.528-3.37,7.528-7.528v-17.713
			C507.175,478.453,501.918,471.369,494.565,468.607z M104.763,482.411c2.398,0,4.348,1.951,4.348,4.348v10.185H19.879v-10.185
			c0-2.397,1.951-4.348,4.348-4.348H104.763z M91.084,459.01v8.345H37.905v-8.345c0-1.5,1.22-2.721,2.721-2.721h47.737
			C89.863,456.289,91.084,457.51,91.084,459.01z M109.809,109.632c-23.224,23.452-36.015,54.499-36.015,87.422v244.181h-18.6
			V197.053c0-36.032,13.508-70.471,38.034-96.974c22.659-24.483,52.764-40.149,85.433-44.615c0.889,6.124,2.741,12.155,5.54,18.052
			C156.082,76.643,130.029,89.214,109.809,109.632z M318.86,48.952c-0.002,0.046-0.006,0.091-0.009,0.137
			c-0.027,0.566-0.062,1.132-0.111,1.697c-0.002,0.026-0.006,0.051-0.008,0.076c-0.052,0.587-0.114,1.173-0.19,1.759
			c-0.001,0.007-0.002,0.014-0.003,0.021c-1.025,7.922-4.217,15.743-9.528,23.318c-0.022,0.031-0.037,0.065-0.058,0.096
			c-15.393,21.905-44.147,35.844-53.112,39.804c-5.427-2.412-18.082-8.501-30.68-17.898c-9.241-6.894-16.5-14.031-21.759-21.373
			c-0.12-0.212-0.236-0.425-0.378-0.627c-6.549-9.348-9.887-19.056-9.922-28.854c0-0.022-0.003-0.044-0.004-0.065
			c0-0.064-0.003-0.128-0.003-0.192c0.038-17.548,14.324-31.795,31.864-31.795c0.023,0,0.047,0,0.07,0
			c9.868,0.022,19.01,4.505,25.084,12.301c1.423,1.827,3.607,2.897,5.922,2.902c2.333,0.01,4.505-1.055,5.935-2.876
			c6.094-7.752,15.227-12.193,25.068-12.193c0.023,0,0.047,0,0.07,0c17.571,0.038,31.834,14.363,31.796,31.933
			C318.901,47.733,318.887,48.342,318.86,48.952z M402.202,109.645c-20.213-20.418-46.256-32.992-74.371-36.125
			c2.796-5.895,4.641-11.926,5.523-18.053c32.665,4.468,62.762,20.133,85.417,44.615c24.526,26.502,38.033,60.94,38.033,96.971
			v237.739h-18.602V197.053C438.203,164.137,425.417,133.095,402.202,109.645z M415.497,454.196c0-2.397,1.951-4.348,4.348-4.348
			h55.317c2.397,0,4.347,1.951,4.347,4.348v13.159h-64.012V454.196z M492.119,496.945h-89.232V486.76
			c0-2.397,1.951-4.348,4.348-4.348h80.536c2.398,0,4.348,1.951,4.348,4.348V496.945z"/>
	</g>
</g>
<g>
	<g>
		<path d="M332.979,323.599h-153.96c-15.614,0-28.317,12.703-28.317,28.317c0,15.614,12.703,28.317,28.317,28.317
			c1.901,0,3.766-0.192,5.577-0.552c2.946,10.46,12.566,18.153,23.956,18.153h6.281v106.638c0,4.157,3.37,7.528,7.528,7.528h67.277
			c4.158,0,7.528-3.37,7.528-7.528V397.834h6.281c11.39,0,21.01-7.693,23.956-18.153c1.811,0.36,3.676,0.552,5.577,0.552
			c15.614,0,28.317-12.703,28.317-28.317C361.296,336.302,348.593,323.599,332.979,323.599z M282.11,496.945h-52.222v-99.11h52.222
			V496.945z M303.446,382.779h-94.895c-5.422,0-9.834-4.412-9.834-9.834v-0.683c1.551-1.507,2.944-3.192,4.13-5.049h106.302
			c1.186,1.858,2.58,3.543,4.13,5.049v0.683h0.001C313.28,378.367,308.868,382.779,303.446,382.779z M332.979,365.177
			c-2.766,0-5.372-0.85-7.536-2.347c-0.073-0.057-0.138-0.121-0.214-0.175c-1.532-1.111-2.798-2.515-3.728-4.119
			c-0.003-0.005-0.005-0.01-0.008-0.015c-0.149-0.258-0.289-0.521-0.42-0.788c-0.12-0.246-0.232-0.499-0.338-0.755
			c-0.016-0.038-0.035-0.074-0.05-0.111c-1.005-2.491-3.246-4.229-5.846-4.625c-0.372-0.056-0.751-0.086-1.134-0.086H198.293
			c-0.384,0-0.763,0.029-1.134,0.086c-2.601,0.396-4.841,2.134-5.846,4.625c-0.015,0.038-0.034,0.074-0.05,0.111
			c-0.106,0.256-0.218,0.508-0.338,0.755c-0.131,0.267-0.271,0.531-0.42,0.788c-0.003,0.005-0.005,0.01-0.008,0.015
			c-0.93,1.604-2.197,3.007-3.728,4.119c-0.075,0.055-0.141,0.118-0.214,0.175c-2.163,1.497-4.77,2.347-7.536,2.347
			c-7.312,0-13.262-5.949-13.262-13.262c0-7.312,5.95-13.261,13.262-13.261h153.96c7.312,0,13.262,5.949,13.262,13.261
			C346.241,359.228,340.291,365.177,332.979,365.177z"/>
	</g>
</g>
<g>
</g>
<g>
</g>
<g>
</g>
<g>
</g>
<g>
</g>
<g>
</g>
<g>
</g>
<g>
</g>
<g>
</g>
<g>
</g>
<g>
</g>
<g>
</g>
<g>
</g>
<g>
</g>
<g>
</g>
</svg>
