<?xml version="1.0" encoding="utf-8"?>
<!-- Generator: Adobe Illustrator 22.1.0, SVG Export Plug-In . SVG Version: 6.00 Build 0)  -->
<svg version="1.1" id="Calque_1" xmlns="http://www.w3.org/2000/svg" xmlns:xlink="http://www.w3.org/1999/xlink" x="0px" y="0px"
	 viewBox="0 0 512 403" style="enable-background:new 0 0 512 403;" xml:space="preserve">
<style type="text/css">
	.st0{fill:#FF8697;}
	.st1{fill:#F27082;}
	.st2{fill:#FFA9B5;}
	.st3{fill:#FFCDD4;}
</style>
<path class="st0" d="M162.8,202.8L162.8,202.8c-2.7,0-5.3-0.7-7.6-2.1c-25.6-15-50.9-22.7-67.6-26.5c-6.9-1.6-11.8-7.8-11.7-14.8
	c0.3-25.1,3.1-50.2,7.6-70.7c7.3-32.3,16-39.7,22.9-42.5c6.5-2.7,17.3-3.8,42.9,11.8c15.9,9.6,33.9,23.6,50.9,39.2
	c4.8,4.4,6.2,11.4,3.5,17.2c-11.7,25.7-20.8,52.2-26.4,76.6C175.9,197.9,169.8,202.8,162.8,202.8z"/>
<path class="st1" d="M349.2,202.8c-7,0-13.1-4.8-14.6-11.7c-5.6-24.4-14.7-50.9-26.4-76.6c-2.7-5.9-1.3-12.9,3.5-17.2
	c17-15.7,35.1-29.6,50.9-39.2c25.7-15.6,36.4-14.5,42.9-11.8c6.9,2.8,15.6,10.2,22.9,42.5c4.6,20.5,7.3,45.6,7.6,70.7
	c0.1,7.1-4.8,13.3-11.7,14.8c-16.7,3.8-42,11.5-67.6,26.5C354.5,202.1,351.9,202.8,349.2,202.8z"/>
<path class="st2" d="M257.7,402c-0.6,0-1.2,0-1.7,0c-28.2,0.2-124.1-3.8-185.3-61.5C14.9,287.8,0,216.7,0,183c0-17.2,3.3-28.6,10-35
	c13-12.3,46-9.5,64.5-6.8c18.6,2.8,54.9,10.5,92.2,31.5h178.4c37.3-21,73.6-28.8,92.2-31.5c18.5-2.7,51.5-5.5,64.5,6.8
	c6.7,6.4,10,17.8,10,35c0,33.7-14.9,104.8-70.7,157.5C381.3,397.1,287.9,402,257.7,402z"/>
<path class="st0" d="M502,148.1c-13-12.3-46-9.5-64.5-6.8c-18.6,2.8-54.9,10.5-92.2,31.5H256V402c0.6,0,1.1,0,1.7,0
	c30.2,0,123.6-4.9,183.6-61.5C497.1,287.8,512,216.7,512,183C512,165.9,508.7,154.4,502,148.1z"/>
<path class="st3" d="M256,402c-34.1,0-62.6-13.2-82.6-38.1c-21.7-27.1-32.6-67-32.6-118.7c0-63.4,27.4-127.3,43.7-159.7
	c11.1-22,23.5-42.3,35-57.2C238.1,4.1,248.8,1,256,1s17.9,3.1,36.6,27.2c11.5,14.9,23.9,35.2,35,57.2
	c16.3,32.4,43.7,96.3,43.7,159.7c0,51.7-11,91.7-32.6,118.7C318.6,388.8,290.1,402,256,402z"/>
<path class="st2" d="M327.5,84.8c-11.1-22.1-23.5-42.5-35-57.5C273.9,3.1,263.2,0,256,0v403c34.1,0,62.6-13.3,82.6-38.3
	c21.7-27.2,32.6-67.3,32.6-119.3C371.2,181.6,343.9,117.4,327.5,84.8z"/>
</svg>
