<svg height="512pt" viewBox="0 0 512.00106 512" width="512pt" xmlns="http://www.w3.org/2000/svg">
  <path fill="#fff" d="m471.890625 179.421875 13.765625-13.765625c2.433594-2.433594 3.042969-6.152344 1.5-9.234375l-16-32c-1.355469-2.710937-4.125-4.421875-7.15625-4.421875h-20.820312c9.722656-6.230469 18.773437-15.152344 25.355468-24.867188 1.058594.515626 2.207032.867188 3.464844.867188 22.054688 0 40-17.945312 40-40 0-4.417969-3.582031-8-8-8-11.601562 0-21.976562 5.046875-29.289062 12.964844l-1.507813-3.648438c11.78125-15.660156 10.703125-37.984375-3.546875-52.226562-3.125-3.125-8.1875-3.125-11.3125 0-15.082031 15.082031-15.4375 39.238281-1.339844 54.921875l5.082032 12.304687c-.558594 1.996094-1.359376 4.042969-2.332032 6.105469-6.535156-13.222656-20.03125-22.421875-35.753906-22.421875-4.417969 0-8 3.582031-8 8 0 16.960938 10.65625 31.398438 25.589844 37.207031-4.632813 3.925781-9.554688 7.121094-14.390625 9.191407l-6.394531-4.796876c-2.609376-1.949218-6.132813-2.128906-8.917969-.460937l-36.949219 22.167969c-1.6875-.417969-3.445312-.472656-5.082031.230468l-21.039063 9.121094c-3.59375 1.558594-5.53125 5.492188-4.574218 9.292969l.125.488281c-8.421876-.429687-16.84375-.011718-25.179688 1.078125l6.460938-12.917969 9.21875 1.316407c.378906.054687.761718.082031 1.136718.082031 2.648438 0 5.15625-1.316406 6.65625-3.5625l14.160156-21.242188 36.753907-7.351562c2.8125-.5625 5.109375-2.589844 6.019531-5.3125l8-24c.703125-2.117188.496094-4.425781-.578125-6.382812-1.070313-1.953126-2.910156-3.371094-5.070313-3.910157l-18.769531-4.691406c1.390625-2.808594 1.019531-6.214844-1.027343-8.667969l-40-48c-2.222657-2.660156-5.894532-3.589844-9.117188-2.308594l-40 16c-2 .800782-3.59375 2.375-4.417969 4.367188s-.8125 4.234375.039063 6.214844l5.503906 12.847656h-30.152344c-2.425781 0-4.722656 1.101562-6.242187 2.996094-1.515625 1.890625-2.09375 4.371094-1.566407 6.738281l16 72c.722657 3.25 3.382813 5.714844 6.675782 6.183594l5.785156.828125-6.183594 18.550781c-.960937-1.316406-2.316406-2.34375-3.9375-2.886719l-44.855468-14.953125-3.941407-7.878906 11.921875-11.921875c1.5-1.5 2.34375-3.535156 2.34375-5.65625v-30.703125l7.589844-22.765625c.8125-2.441406.402344-5.121094-1.101562-7.207031-1.503907-2.089844-3.917969-3.324219-6.488282-3.324219h-19.039062l-5.117188-25.570312c-.449218-2.25-1.84375-4.195313-3.828125-5.347657-1.992187-1.15625-4.371093-1.390625-6.546875-.671875l-13.46875 4.492188v-4.902344c0-2.6875-1.351562-5.199219-3.597656-6.679688-2.238281-1.480468-5.078125-1.730468-7.554688-.671874l-56 24c-2.320312.992187-4.035156 3.027343-4.625 5.484374-.589843 2.457032.015626 5.046876 1.632813 6.988282l1.789063 2.144531-24.445313 18.335937c-2.078125 1.554688-3.269531 4.023438-3.195313 6.621094.070313 2.59375 1.398438 4.992188 3.558594 6.433594l24 16c1.324219.882812 2.871094 1.34375 4.4375 1.34375.648438 0 1.300782-.078125 1.941406-.238281l1.203126-.300781 21.996093 36.65625c1.445313 2.410156 4.050781 3.882812 6.859375 3.882812h25.75l5.621094 22.472656-4.171875 3.128906c-3.53125 2.648438-4.25 7.660157-1.601563 11.191407l8.734376 11.65625c-2.800782-.855469-5.871094-.222657-7.988282 1.894531l-1.238281 1.238281c-13.136719-2.144531-25.875-6.445312-37.921875-12.8125l-24.359375-12.894531-.554687-.835938 11.386718-11.382812c2.816406-2.816406 3.128906-7.269531.738282-10.457031l-24-32c-2.550782-3.398438-7.316407-4.210938-10.847657-1.847657l-10.050781 6.722657c-6.253906-1.664063-12.972656-5.632813-19.132812-10.855469 14.957031-5.796875 25.636718-20.242188 25.636718-37.21875 0-4.417969-3.582031-8-8-8-15.675781 0-29.140625 9.148438-35.695312 22.3125-1.3125-2.796875-2.398438-5.574219-2.929688-8.226562l-.800781-4.003907c12.417969-15.6875 11.566406-38.511719-2.917969-52.992187-3.125-3.125-8.1875-3.125-11.3125 0-14.90625 14.902344-15.402344 38.648437-1.816406 54.34375l1.160156 5.792968c.441406 2.207032 1.125 4.449219 1.929688 6.695313-9.664063-3.75-20.746094-3.808594-30.90625.785156-4.027344 1.816407-5.820313 6.554688-4.003906 10.582031 6.664062 14.78125 21.265624 23.542969 36.511718 23.542969 5.496094 0 11.074219-1.136719 16.398438-3.539062.867187-.394531 1.578125-.972657 2.226562-1.597657 1.289063 1.230469 2.605469 2.417969 3.953125 3.566407-.199219.121093-.414062.199219-.601562.339843l-32 24c-3.53125 2.644532-4.246094 7.652344-1.609375 11.1875l5.152344 6.894532-10.320313 5.160156c-.210937.105469-.324219.320312-.523437.441406-.542969.332032-.96875.746094-1.417969 1.195313-.445313.445312-.859375.871093-1.191407 1.414062-.121093.199219-.335937.3125-.441406.527344l-16 32c-1.082031 2.167969-1.125 4.710937-.113281 6.914063 1.011719 2.207031 2.964844 3.832031 5.316406 4.421874l5.503907 1.375c-1.574219 11.308594-.519532 22.726563 3.410156 33.441407l17.515625 48.160156c.074219.195313.246093.328125.332031.519531.328125.71875.730469 1.363282 1.238281 1.941406.207031.234376.394531.457032.625.667969.6875.625 1.460938 1.132813 2.328125 1.488281.089844.035157.148438.121094.242188.15625.019531.003907.039062 0 .058594.007813.851562.304687 1.757812.484375 2.699218.484375 43.476563 0 86.035156 17.546875 116.851563 48.164062l42.941406 55.875c-4.316406.117188-7.792969 3.613282-7.792969 7.957032v32c0 4.417968 3.578125 8 7.996094 8h6.03125l-13.839844 62.265625c-.527344 2.367187.050782 4.847656 1.566406 6.738281 1.519532 1.894531 3.816407 2.996094 6.242188 2.996094h112c2.425781 0 4.722656-1.101563 6.242188-2.996094 1.515624-1.890625 2.09375-4.371094 1.566406-6.738281l-13.835938-62.265625h6.027344c4.417969 0 8-3.582032 8-8v-32c0-4.222656-3.304688-7.59375-7.453125-7.886719 6.132813-.210937 12.246094.199219 18.136719 1.421875 3.953125.824219 8.425781 2.179688 13.007812 4.207031-4.847656 7.453125-7.691406 16.320313-7.691406 25.855469 0 12.714844 4.949219 24.667969 13.941406 33.65625l52.402344 52.402344c1.5625 1.5625 3.609375 2.34375 5.65625 2.34375s4.09375-.78125 5.65625-2.34375l56-56c3.125-3.125 3.125-8.1875 0-11.3125l-52.402344-52.402344c-8.988281-8.992188-20.941406-13.941406-33.65625-13.941406-10.65625 0-20.476562 3.5625-28.417968 9.503906-6.457032-3.449219-13.550782-6.03125-21.238282-7.632812-3.195312-.664063-6.445312-1.144532-9.726562-1.453126l30.933594-40.25c15.269531-15.175781 33.25-27.144531 53.429687-35.578124 20.1875-8.351563 41.527344-12.585938 63.421875-12.585938.273438 0 .519531-.105469.785156-.132812.421875-.042969.820313-.097657 1.230469-.207032.484375-.128906.933594-.308594 1.378906-.523437.359375-.167969.703125-.332031 1.035157-.558594.453124-.304687.835937-.667969 1.21875-1.058594.1875-.195312.429687-.308593.601562-.527343l15.9375-19.941407c7.824219-9.851562 12.132812-22.105469 12.132812-34.496093 0-6.03125-.980468-11.941407-2.886718-17.472657-5.09375-15.378906-16.695313-27.59375-31.542969-33.660156zm-88.292969 212.574219c8.441406 0 16.378906 3.285156 22.34375 9.253906l46.746094 46.746094-44.6875 44.6875-46.746094-46.746094c-5.96875-5.96875-9.253906-13.902344-9.253906-22.339844 0-6.421875 1.949219-12.390625 5.257812-17.378906 4.324219 3.640625 8.421876 8.128906 11.882813 13.898438l13.71875-8.234376c-3.734375-6.226562-8.277344-11.667968-13.453125-16.359374 4.285156-2.179688 9.0625-3.527344 14.191406-3.527344zm7.957032-178.503906c-.386719-1.160157-1-2.253907-1.894532-3.148438l-16-16c-.421875-.425781-.902344-.765625-1.394531-1.078125l-4.265625-4.46875v-.667969l44.851562 19.21875c1.003907.433594 2.078126.652344 3.148438.652344 1.007812 0 2.015625-.191406 2.972656-.570312l22.664063-9.066407-7.011719 17.527344-41.535156-.789063zm-20.261719 1.933593 3.648437 3.828125-5.183594 20.746094h-6.65625zm66.566406-77.035156-6.015625 12.007813c-.066406-.3125-.148438-.621094-.25-.929688l-7.011719-21.035156zm-6.085937 46.683594-15.667969 6.265625-41.023438-17.578125 5.003907-4.214844zm38.492187-26.652344-16.542969 16.542969-14.164062-4.257813 15.59375-31.125c.578125-1.148437.75-2.367187.746094-3.582031h3.15625zm23.386719-92.074219c-2.367188 4.933594-6.367188 8.9375-11.304688 11.304688 2.367188-4.933594 6.371094-8.9375 11.304688-11.304688zm-29.652344-41.011718c.902344 2.546874 1.375 5.257812 1.375 8.039062 0 2.777344-.472656 5.488281-1.375 8.035156-.898438-2.546875-1.371094-5.257812-1.371094-8.035156 0-2.78125.46875-5.492188 1.371094-8.039062zm-29.652344 49.011718c4.933594 2.367188 8.9375 6.371094 11.304688 11.304688-4.933594-2.367188-8.9375-6.371094-11.304688-11.304688zm-8.40625 85.414063c.507813-.128907 1-.304688 1.46875-.523438l-3.402344 6.796875-10.523437-3.160156zm-26.78125-12.183594 5.789063-11.578125h5.285156l3.445313 10.335938-18.152344 4.535156-5.101563-7.660156zm-32.007812-1.429687 2.308594 11.429687-4.796876 4.039063-2.019531-8.109376c-.003906-.007812-.007812-.011718-.007812-.019531h.003906l-1.222656-4.851562zm-18.691406 16.605468 3.542968 14.226563v15.019531c0 2.054688.792969 4.035156 2.210938 5.519531l4.578125 4.800781-13.273438 39.824219c-6.085937 1.066407-12.109375 2.457031-17.984375 4.429688-13.269531 4.453125-25.5 10.859375-36.347656 19.039062l-3 2.265625c-6.316406 4.769532-11.359375 8.5625-16.1875 11.578125v-13.210937l9.941406-2.488282c2.652344-.664062 4.78125-2.636718 5.648438-5.230468l14.609375-43.835938 27.742187-6.933594c2.796875-.699218 5-2.847656 5.769532-5.625.769531-2.777343-.015626-5.753906-2.054688-7.792968l-26.886719-26.886719c1.160157-.433594 2.136719-1.164063 2.972657-2.054687 12.617187-2.871094 25.675781-3.855469 38.71875-2.644532zm-100.457032 109.246094h8v10.234375l-8 2.667969zm85.574219-254.414062 32.457031 38.945312-10.3125 15.46875h-11.71875l12.800782-9.601562c1.855468-1.390626 3.015624-3.519532 3.179687-5.832032s-.683594-4.582031-2.324219-6.222656l-16-16c-2.140625-2.152344-5.320312-2.90625-8.1875-1.933594l-22.015625 7.339844-4.871093-11.367188zm6.242187 37.546874-16.476562 12.359376-5.5625-12.984376 16.058594-5.355468zm-32.972656 14.476563 1.019532 2.390625h-1.621094zm-32.871094-13.609375h19.78125l-5.519531 22.058594c-.597656 2.390625-.054687 4.921875 1.460938 6.863281 1.511719 1.941406 3.835937 3.078125 6.300781 3.078125h23.972656.054688 39.972656c2.675781 0 5.171875-1.335938 6.65625-3.5625l7.160156-10.738281 15.863282 3.964843-3.800782 11.402344-35.449218 7.089844c-2.078126.414062-3.910157 1.640625-5.085938 3.40625l-13.203125 19.804688-22.289063-3.183594-11.320312-3.773438c-2.511719-.84375-5.050781-.257812-7.050781 1.148438l-4.871094-.695313zm32.171876 75.8125 2.574218.859375-9.421875 18.839844c-2.027343.570312-4.015625 1.28125-6.015625 1.9375l7.46875-22.40625zm-42.144532 39.628906v22.3125l-23.070312 5.765625-18.53125-9.269531 27.4375-6.464844c3.613281-.851562 6.164062-4.074218 6.164062-7.785156v-20.902344l8 2.667969zm-37.46875-3.851562 13.46875-4.492188v6.570313l-26.144531 6.164062-10.664063-14.230469 22.25-16.6875 9.257813 3.085938-13.234375 4.410156zm-12.84375-34.328125-8.679687 5.785156-2.761719-11.046875h8.808594zm15.214844-77.261719-4.492188 13.46875c-.273437.816406-.410156 1.671875-.410156 2.53125v28.6875l-11.3125 11.3125h-16.15625l-17.226562-28.710938 40.273437-20.132812c.746094-.375 1.398438-.875 1.980469-1.441406.1875-.183594.324219-.398438.496094-.601563.351562-.414062.671875-.84375.933594-1.320312.140624-.261719.246093-.535157.359374-.8125.191407-.46875.335938-.941407.4375-1.445313.0625-.308594.105469-.609375.128907-.929687.015625-.203125.085937-.398438.085937-.609375h4.902344zm-36.902344-26.234375 9.933594-3.308594 5.023438 25.117188-15.734376 7.867187c.496094-1.042968.777344-2.210937.777344-3.445312zm-9.890625 34.234375-12.019531 6.007812-5.007812-6.007812zm-6.109375-43.867188v4.917969l-4.492187-2.992187zm-10.992187 16.820313 10.992187 7.328125v3.71875h-13.753906zm-17.695313 4.800781-4.914062-6.554687c-.140625-.1875-.351563-.277344-.503906-.449219l8.03125-3.445312zm-29.464844 21.863282 16.050782-12.042969 7.8125 9.371093 4.660156 6.214844-16.878906 4.21875zm30.144532 20.820312 9.847656-3.285156 3.804688 3.804687 16.226562 27.042969h-13.339844zm50.828125 111.917969 37.601562 18.800781c1.007813.5 2.101563.707031 3.214844.757812.125.003907.234375.085938.363281.085938.644532 0 1.296875-.078125 1.941406-.238281l31.996094-8c3.558594-.890625 6.058594-4.089844 6.058594-7.761719v-23.796875c.140625-.074219.289062-.132813.429688-.203125h12.257812l19.664062 19.664062-18.292968 4.574219c-2.652344.664063-4.78125 2.636719-5.648438 5.230469l-14.609375 43.835938-25.800781 6.449218-27.058594-6.765625-30.285156-45.425781c-.945312-1.417969-2.300781-2.472656-3.851562-3.054688l6.773437-6.773437zm-27.167969-3.320313-9.308594 9.308594c-2.289062 2.289062-2.972656 5.722656-1.734375 8.714844 1.238281 2.988281 4.15625 4.941406 7.390625 4.941406h11.71875l29.625 44.433594c1.105469 1.65625 2.785156 2.839844 4.714844 3.324218l17.941406 4.484376v19.40625c-6.828125-.617188-12.421875-2.136719-17.753906-4.71875l-.589844-.589844-.21875.21875c-6.613281-3.347656-12.925781-8.109375-21.621094-14.683594l-6.011718-4.542969c-9.109375-6.886719-16.300782-12.328125-24.304688-16.332031-6.273437-3.136719-12.738281-5.015625-20.074218-6.042969l-13.042969-26.085937 7.226562-36.128906 4.09375 2.167968c10.238281 5.414063 20.949219 9.398438 31.949219 12.125zm-55.9375 32.28125 7.339844 14.683594h-7.742188l-11.664062-11.664062zm1.722656-90.066406-11.09375 11.09375c-2.6875 2.6875-3.113281 6.890625-1.019531 10.0625l5.28125 8c.203125.308594.460937.636719.726563.9375l8.175781 12.324219-6.269531 31.347656-39.175782 6.53125-29.261718-21.945313c-.855469-.644531-1.832032-1.105468-2.867188-1.363281l-22.324219-5.566406 6.582031-13.167969 8.152344 8.152344c1.5 1.5 3.535156 2.34375 5.65625 2.34375h40 .003906c.753907 0 1.492188-.105469 2.195313-.308594.121094-.035156.226563-.109375.34375-.148437.082031-.03125.179687-.019531.265625-.050781.011719-.007813.023438-.019532.039062-.023438.152344-.058594.269532-.179688.417969-.25.019531-.007812.039063-.011719.058594-.023438.289063-.132812.601563-.21875.875-.386718.214844-.132813.382813-.328125.582031-.480469.144532-.109375.316406-.175781.453125-.296875.015625-.011719.039063-.019531.054688-.03125.109375-.097656.175781-.21875.28125-.320312.097656-.097657.226562-.164063.320312-.269532.136719-.144531.21875-.335937.34375-.492187.203125-.257813.40625-.503907.574219-.777344.070312-.121094.140625-.238281.210938-.363281.039062-.074219.105468-.128906.140624-.207032l23.988282-47.984374c.539062-1.066407.78125-2.226563.808594-3.394532 0-.066406.042968-.125.042968-.191406zm-47.972656 28.804688-8.574219-2.859376-5.847656-7.773437 11.191406-5.59375zm-28.980469-3.355469 5.496094 7.300781h-2.667969l-5.808594-5.808594zm61.664063-45.835938 4.050781 5.402344-7.589844-3.035156zm-24.496094-48.515625c-2.367188 4.933594-6.371094 8.9375-11.304688 11.304688 2.367188-4.933594 6.371094-8.9375 11.304688-11.304688zm-37.652344-41.011718c.902344 2.546874 1.371094 5.257812 1.371094 8.039062 0 2.777344-.46875 5.488281-1.371094 8.035156-.902344-2.546875-1.371094-5.257812-1.371094-8.035156 0-2.78125.46875-5.492188 1.371094-8.039062zm-11.320312 63.949218c-2.59375-.980468-4.957032-2.375-7.015625-4.113281 5.488281.125 10.800781 2.132813 15 5.667969-2.695313-.058594-5.390625-.574219-7.984375-1.554688zm36.515625 31.816406 13.238281 5.296876c.046875.019531.078125.050781.125.070312l14.382812 5.734375-9.660156 19.28125-3.441406-17.074219c-.492188-2.4375-2.09375-4.507812-4.332031-5.601562-1.109375-.539063-2.308594-.808594-3.507813-.808594-.007812 0-.011718.003906-.019531.003906-1.222656 0-2.441406.277344-3.558594.835938l-23.136719 11.570312-2.097656-2.800781zm-38.148438 83.917969 9.449219 2.351563 30.703125 23.023437c.800781.601563 1.707031.992188 2.652344 1.253907.292969.085937.585937.097656.886719.144531.421874.070312.832031.207031 1.261718.207031.4375 0 .878906-.035156 1.316406-.109375l9.652344-1.609375 13.347656 13.347656c-15.832031 4.074219-28.746093 11.417969-45.960937 21.261719l-6.078125 3.460937-14.289062-39.265624c-2.828126-7.714844-3.816407-15.90625-2.941407-24.066407zm141.488281 120.203125c-27.492187-27.492187-63.585937-45.453125-101.839843-51.214844.078125-.042968.164062-.09375.242187-.136718.777344-.4375 1.496094-.820313 2.257813-1.242188 1.957031-1.085937 3.886719-2.144531 5.75-3.128906.945312-.496094 1.863281-.945312 2.789062-1.417969 1.621094-.824219 3.230469-1.625 4.816407-2.367187.992187-.464844 1.984374-.890625 2.972656-1.324219 1.496094-.660156 2.996094-1.285156 4.5-1.863281 1.023437-.398438 2.054687-.773438 3.089844-1.132813 1.5-.523437 3.019531-1 4.558593-1.449219 1.054688-.308593 2.113281-.613281 3.195313-.886718 1.609375-.40625 3.28125-.75 4.96875-1.074219 1.074218-.207031 2.128906-.429687 3.238281-.605469 1.910156-.300781 3.9375-.515625 5.980469-.714844 1-.097656 1.941406-.234374 2.972656-.308593 3.144531-.222657 6.433594-.355469 9.972656-.355469 11.015625 0 18.890625 1.589844 26.34375 5.316406 6.683594 3.339844 13.027344 8.140625 21.808594 14.78125l6.011719 4.542969c8.40625 6.355469 15.207031 11.429687 22.5 15.332031l25.902343 25.90625c18.167969 18.167969 32.8125 39.855469 43.121094 63.410156-4.191406 1.949219-8.199218 4.1875-11.984375 6.710938h-41.761719l-50.710937-65.984375c-.214844-.28125-.445313-.542969-.695313-.792969zm127.460938 98.773438h-17.375c.210938-.589844.316406-1.214844.480469-1.820313.125-.464843.269531-.921875.367187-1.398437.316406-1.5625.527344-3.152344.527344-4.78125 0-1.542969-.175781-3.039063-.453125-4.5-.09375-.484375-.246094-.933594-.367187-1.40625-.179688-.699219-.308594-1.417969-.550782-2.09375h25.371094v16zm-20.683594 42.746094c-.1875.453124-.664062 1.269531-1.753906 1.632812-1.09375.371094-1.976562-.007812-2.402344-.265625-.425781-.253906-1.167968-.855469-1.359375-2l-3.160156-18.949219 8.59375 17.179688c.511719 1.027344.269531 1.945312.082031 2.402344zm-34.46875 1.371093c-.421875.257813-1.304687.632813-2.40625.265625-1.085937-.363281-1.5625-1.179687-1.75-1.632812-.191406-.457032-.429687-1.375.082032-2.398438l8.59375-17.183594-3.160157 18.953126c-.191406 1.136718-.933593 1.738281-1.359375 1.996093zm-32.84375-44.117187v-16h25.371094c-.242188.675781-.371094 1.394531-.550781 2.097656-.121094.46875-.273438.917969-.367188 1.402344-.277343 1.460937-.453125 2.957031-.453125 4.5 0 1.628906.210938 3.21875.527344 4.78125.097656.476562.246094.933594.371094 1.40625.164062.601562.265625 1.226562.476562 1.816406h-25.375zm56-8c0 2.414062-1.039062 4.589844-2.949218 6.164062-2.902344 2.402344-7.179688 2.421875-10.128907-.015625-1.886719-1.554687-2.925781-3.734375-2.925781-6.144531 0-4.410156 3.589844-8 8-8 4.414062 0 8.003906 3.589844 8.003906 7.996094zm38.027344 80h-92.054688l12.445313-56h8.636719l-8.597656 17.195312c-2.449219 4.902344-2.648438 10.617188-.550782 15.679688s6.28125 8.953125 11.472656 10.6875c1.183594.394531 2.398438.625 3.613282.78125.347656.042968.6875.058594 1.035156.082031.445312.03125.886719.109375 1.332031.109375.277344 0 .546875-.101562.828125-.113281 1.078125-.046875 2.128906-.203125 3.179688-.433594.480468-.105469.960937-.175781 1.433594-.316406 1.488281-.449219 2.9375-1.03125 4.300781-1.847657 1.347656-.816406 2.539062-1.816406 3.625-2.914062.34375-.34375.621093-.730469.9375-1.101562.691406-.816407 1.320312-1.664063 1.863281-2.582032.136719-.230468.34375-.414062.472656-.648437.125.238281.332032.421875.472656.652343.542969.914063 1.167969 1.761719 1.859376 2.574219.316406.371094.597656.761719.941406 1.109375 1.085937 1.09375 2.273437 2.097656 3.625 2.910156 1.359375.816407 2.8125 1.398438 4.296875 1.847657.476562.140625.953125.210937 1.4375.316406 1.050781.230469 2.105469.382813 3.175781.433594.28125.011719.550781.109375.832031.109375.441407 0 .886719-.074219 1.328125-.105469.347656-.023437.691406-.039063 1.039063-.082031 1.214843-.15625 2.425781-.386719 3.609375-.785156 5.195312-1.730469 9.378906-5.625 11.476562-10.683594 2.097656-5.0625 1.898438-10.777344-.550781-15.683594l-8.597656-17.191406h8.636719zm100.410156-210.179688c-22.300781 9.316406-42.148437 22.574219-58.972656 39.40625-.25.25-.480469.511719-.695312.792969l-38.984376 50.722656c-5.089843.605469-10.121093 1.664063-15.058593 3.035157-11.121094-25.722657-27.042969-49.40625-46.847657-69.207032l-6.773437-6.773437c1.628906.070312 3.15625.207031 4.894531.207031 13.660156 0 23.679688-2.09375 33.503906-7.007812 8.011719-4.007813 15.214844-9.457032 24.332032-16.351563l2.980468-2.253906c9.46875-7.140625 20.171876-12.738281 31.808594-16.640625 12.160156-4.082032 24.964844-5.792969 37.890625-5.746094h2.324219c13.25.269531 26.597656 2.375 39.503906 5.808594 5 1.332031 9.894532 2.957031 14.730469 4.71875 1.140625.414062 2.273437.832031 3.402344 1.265625 4.738281 1.839843 9.414062 3.832031 13.957031 6.074219.109375.054687.210938.117187.316406.167968-14.480468 2.179688-28.632812 6.117188-42.3125 11.78125zm79.230469-30.734375-11.652344 14.582031-8.363281-4.765624c-14.109375-8.085938-29.316406-14.332032-45.203125-18.554688-9.964844-2.648438-20.171875-4.496094-30.414063-5.5l2.5-10.007812c.3125.042968.59375.195312.914063.203124l50.398437.960938c3.476563-.035156 6.34375-1.9375 7.582032-5.027344l13.742187-34.367187.6875.203125c12.460938 3.597656 22.328125 13.058594 26.417969 25.398437 1.351562 3.941407 2.042969 8.09375 2.042969 12.347657-.003907 8.796874-3.082031 17.515624-8.652344 24.527343zm0 0"/>
</svg>
