<?xml version="1.0"?>
<svg xmlns="http://www.w3.org/2000/svg" xmlns:xlink="http://www.w3.org/1999/xlink" version="1.1" id="Capa_1" x="0px" y="0px" viewBox="0 0 512 512" style="enable-background:new 0 0 512 512;" xml:space="preserve" width="512px" height="512px" class=""><g><g>
	<g>
		<path d="M168.304,400.37h-16.072c-7.591,0-14.224-4.111-17.84-10.211h24.033v-29.986h-26.938v-13.236h26.938V316.95h-25.29    c3.161-7.427,10.53-12.647,19.098-12.647h16.072c11.439,0,20.746,9.307,20.746,20.746h29.986    c0-27.973-22.759-50.732-50.732-50.732h-16.072c-25.217,0-46.188,18.497-50.078,42.634H80.45v29.986h21.051v13.236H80.45v29.986    h22.158c4.864,22.935,25.262,40.198,49.624,40.198h16.072c27.973,0,50.732-22.759,50.732-50.732H189.05    C189.05,391.063,179.743,400.37,168.304,400.37z" data-original="#000000" class="active-path" data-old_color="#ff8697" fill="#ff8697"/>
	</g>
</g><g>
	<g>
		<path d="M183.15,1.238v194.589c-8.106-1.262-16.365-1.916-24.725-1.916c-42.317,0-82.1,16.478-112.023,46.401    C16.479,270.235,0,310.02,0,352.336s16.478,82.102,46.402,112.023c29.923,29.923,69.707,46.403,112.024,46.403    c42.318,0,82.102-16.478,112.023-46.402c19.567-19.567,33.382-43.351,40.603-69.302H512V1.238H183.15z M249.245,443.157    c-24.259,24.259-56.512,37.619-90.819,37.619c-34.307,0-66.562-13.36-90.82-37.62c-24.259-24.26-37.619-56.512-37.619-90.819    c0-34.306,13.36-66.562,37.62-90.822c24.259-24.258,56.513-37.618,90.82-37.618c34.307,0,66.563,13.36,90.82,37.619    c24.259,24.26,37.619,56.514,37.619,90.82C286.865,386.644,273.505,418.897,249.245,443.157z M316.341,365.072    c0.333-4.215,0.025-26.997-0.906-33.984h17.646v-29.986h-24.67c-7.711-22.637-20.557-43.382-37.963-60.788    c-16.51-16.511-36.028-28.919-57.313-36.733V31.224h268.877v333.847H316.341z" data-original="#000000" class="active-path" data-old_color="#ff8697" fill="#ff8697"/>
	</g>
</g><g>
	<g>
		<path d="M243.123,61.211v89.959h208.904V61.211H243.123z M422.041,121.183H273.109V91.197h148.932V121.183z" data-original="#000000" class="active-path" data-old_color="#ff8697" fill="#ff8697"/>
	</g>
</g><g>
	<g>
		<rect x="303.091" y="181.157" width="29.986" height="29.986" data-original="#000000" class="active-path" data-old_color="#ff8697" fill="#ff8697"/>
	</g>
</g><g>
	<g>
		<rect x="362.564" y="181.157" width="29.986" height="29.986" data-original="#000000" class="active-path" data-old_color="#ff8697" fill="#ff8697"/>
	</g>
</g><g>
	<g>
		<rect x="422.027" y="181.157" width="29.986" height="29.986" data-original="#000000" class="active-path" data-old_color="#ff8697" fill="#ff8697"/>
	</g>
</g><g>
	<g>
		<rect x="303.091" y="241.129" width="29.986" height="29.986" data-original="#000000" class="active-path" data-old_color="#ff8697" fill="#ff8697"/>
	</g>
</g><g>
	<g>
		<rect x="362.564" y="241.129" width="29.986" height="29.986" data-original="#000000" class="active-path" data-old_color="#ff8697" fill="#ff8697"/>
	</g>
</g><g>
	<g>
		<rect x="243.119" y="181.157" width="29.986" height="29.986" data-original="#000000" class="active-path" data-old_color="#ff8697" fill="#ff8697"/>
	</g>
</g><g>
	<g>
		<rect x="362.564" y="301.102" width="29.986" height="29.986" data-original="#000000" class="active-path" data-old_color="#ff8697" fill="#ff8697"/>
	</g>
</g><g>
	<g>
		<rect x="422.027" y="241.129" width="29.986" height="89.009" data-original="#000000" class="active-path" data-old_color="#ff8697" fill="#ff8697"/>
	</g>
</g></g> </svg>
