<?xml version="1.0" encoding="iso-8859-1"?>
<!-- Generator: Adobe Illustrator 19.0.0, SVG Export Plug-In . SVG Version: 6.00 Build 0)  -->
<svg version="1.1" id="Capa_1" xmlns="http://www.w3.org/2000/svg" xmlns:xlink="http://www.w3.org/1999/xlink" x="0px" y="0px"
	 viewBox="0 0 512 512" style="enable-background:new 0 0 512 512;" xml:space="preserve">
<g>
	<g>
		<g>
			<path d="M466.979,303.323l-17.632-43.03c5.197-12.206,9.319-24.978,9.319-46.96c0-26.26-6.146-40.115-11.583-52.333
				c-4.879-10.982-8.99-20.932-9.539-39.819l41.727-46.514c7.354-8.24,11.396-19.135,11.396-30.667c0-24.26-18.083-44-40.292-44
				c-8.208,0-16.25,3.917-23.708,11.438C419.208,3.917,411.167,0,402.958,0c-22.208,0-40.292,19.74-40.292,44
				c0,11.531,4.042,22.427,11.417,30.698l42.177,47.009c0.694,23.214,6.224,36.503,11.323,47.96
				c5.229,11.771,9.75,21.927,9.75,43.667c0,5.84-0.387,10.794-0.979,15.249l-12.979-31.676
				c-6.646-15.938-22.104-26.24-39.375-26.24H170.667c-17.271,0-32.729,10.302-39.417,26.313l-39.846,97.26
				c-2.255-5.633-5.025-10.229-7.654-14.5c-5.084-8.24-9.083-14.76-9.083-29.073s4-20.833,9.083-29.073
				c5.275-8.561,10.943-18.531,11.884-35.77l42.303-47.158c7.354-8.24,11.396-19.135,11.396-30.667c0-24.26-18.083-44-40.292-44
				c-8.208,0-16.25,3.917-23.708,11.438C77.875,67.917,69.833,64,61.625,64c-22.208,0-40.292,19.74-40.292,44
				c0,11.531,4.042,22.427,11.417,30.698l41.635,46.405c-0.694,11.565-4.227,17.888-8.802,25.303
				c-5.75,9.333-12.25,19.906-12.25,40.26c0,20.354,6.5,30.927,12.25,40.26c4.284,6.961,7.621,12.884,8.633,23.031
				C67.936,321.389,64,330.863,64,341.333v85.333c0,23.531,19.146,42.667,42.667,42.667c0,23.531,19.146,42.667,42.667,42.667
				h21.333c23.521,0,42.667-19.135,42.667-42.667h128C341.333,492.865,360.479,512,384,512h21.333
				C428.854,512,448,492.865,448,469.333c23.521,0,42.667-19.135,42.667-42.667v-85.333
				C490.667,324.655,480.956,310.337,466.979,303.323z M48.646,124.479c-3.854-4.333-5.979-10.188-5.979-16.479
				c0-12.5,8.5-22.667,18.958-22.667c2.875,0,8.479,3.406,14.813,12.99c3.958,5.979,13.833,5.979,17.792,0
				c6.333-9.583,11.938-12.99,14.813-12.99C119.5,85.333,128,95.5,128,108c0,6.292-2.125,12.146-5.958,16.448l-36.708,40.917
				L48.646,124.479z M426.667,101.365l-36.688-40.885C386.125,56.146,384,50.292,384,44c0-12.5,8.5-22.667,18.958-22.667
				c2.875,0,8.479,3.406,14.813,12.99c3.958,5.979,13.833,5.979,17.792,0c6.333-9.583,11.938-12.99,14.813-12.99
				c10.458,0,18.958,10.167,18.958,22.667c0,6.292-2.125,12.146-5.958,16.448L426.667,101.365z M150.958,205.135
				c3.333-7.979,11.083-13.135,19.708-13.135H384c8.625,0,16.375,5.156,19.667,13.063l38.345,93.604H112.65L150.958,205.135z
				 M170.667,490.667h-21.333c-11.771,0-21.333-9.573-21.333-21.333h64C192,481.094,182.438,490.667,170.667,490.667z
				 M405.333,490.667H384c-11.771,0-21.333-9.573-21.333-21.333h64C426.667,481.094,417.104,490.667,405.333,490.667z
				 M469.333,426.667c0,11.76-9.563,21.333-21.333,21.333h-10.667H352H202.667h-85.333h-10.667
				c-11.771,0-21.333-9.573-21.333-21.333v-85.333c0-11.76,9.563-21.333,21.333-21.333H448c11.771,0,21.333,9.573,21.333,21.333
				V426.667z"/>
			<path d="M149.333,341.333c-23.521,0-42.667,19.135-42.667,42.667s19.146,42.667,42.667,42.667
				C172.854,426.667,192,407.531,192,384S172.854,341.333,149.333,341.333z M149.333,405.333C137.563,405.333,128,395.76,128,384
				c0-11.76,9.563-21.333,21.333-21.333c11.771,0,21.333,9.573,21.333,21.333C170.667,395.76,161.104,405.333,149.333,405.333z"/>
			<path d="M405.333,341.333c-23.521,0-42.667,19.135-42.667,42.667s19.146,42.667,42.667,42.667
				C428.854,426.667,448,407.531,448,384S428.854,341.333,405.333,341.333z M405.333,405.333C393.563,405.333,384,395.76,384,384
				c0-11.76,9.563-21.333,21.333-21.333c11.771,0,21.333,9.573,21.333,21.333C426.667,395.76,417.104,405.333,405.333,405.333z"/>
			<path d="M330.667,362.667H224c-5.896,0-10.667,4.771-10.667,10.667c0,5.896,4.771,10.667,10.667,10.667h106.667
				c5.896,0,10.667-4.771,10.667-10.667C341.333,367.438,336.563,362.667,330.667,362.667z"/>
			<path d="M330.667,405.333H224c-5.896,0-10.667,4.771-10.667,10.667c0,5.896,4.771,10.667,10.667,10.667h106.667
				c5.896,0,10.667-4.771,10.667-10.667C341.333,410.104,336.563,405.333,330.667,405.333z"/>
		</g>
	</g>
</g>
<g>
</g>
<g>
</g>
<g>
</g>
<g>
</g>
<g>
</g>
<g>
</g>
<g>
</g>
<g>
</g>
<g>
</g>
<g>
</g>
<g>
</g>
<g>
</g>
<g>
</g>
<g>
</g>
<g>
</g>
</svg>
