<svg height="511pt" viewBox="1 1 511 511.99975" width="511pt" xmlns="http://www.w3.org/2000/svg">
  <path fill="#fff" d="m92.117188 391.464844v-38.316406c0-9.675782-15-9.675782-15 0v38.316406c0 9.675781 15 9.675781 15 0zm0 0"/>
  <path fill="#fff" d="m505 241.6875h-30.644531c-4.144531 0-7.5 3.355469-7.5 7.5v13.433594h-15.648438v-13.433594c0-4.144531-3.355469-7.5-7.5-7.5h-22.765625v-37.347656h5.40625c4.140625 0 7.5-3.355469 7.5-7.5v-58.339844c0-4.144531-3.359375-7.5-7.5-7.5h-30.648437c-4.144531 0-7.5 3.355469-7.5 7.5v13.433594h-15.644531v-13.433594c0-4.144531-3.359376-7.5-7.5-7.5h-31.265626c-4.140624 0-7.5 3.355469-7.5 7.5v13.433594h-15.492187v-72.933594h17.84375c6.640625 0 10.019531-8.617188 4.992187-13.097656l-27.777343-24.765625c-7.21875-6.441407-17.203125 4.757812-9.980469 11.195312l13.082031 11.667969h-104.1875l52.09375-46.453125 13.011719 11.601563c7.21875 6.441406 17.203125-4.757813 9.980469-11.195313l-18-16.050781c-2.84375-2.535156-7.136719-2.535156-9.980469 0l-71.773438 64c-4.960937 4.417968-1.746093 13.097656 4.988282 13.097656h16.84375v72.933594h-15.109375v-13.433594c0-4.144531-3.355469-7.5-7.5-7.5h-30.644531c-4.144532 0-7.5 3.355469-7.5 7.5v13.433594h-15.648438v-13.433594c0-4.144531-3.355469-7.5-7.5-7.5h-30.648438c-4.140624 0-7.5 3.355469-7.5 7.5v58.339844c0 4.144531 3.359376 7.5 7.5 7.5h5.40625v37.347656h-23.496093c-4.140625 0-7.5 3.355469-7.5 7.5v13.433594h-15.644531v-13.433594c0-4.144531-3.359376-7.5-7.5-7.5h-30.648438c-4.144531 0-7.5 3.355469-7.5 7.5v58.339844c0 4.144531 3.355469 7.5 7.5 7.5h16.871094v43.972656c0 9.675781 15 9.675781 15 0v-43.515625h89.492187v181.515625h-89.492187v-101c0-9.675781-15-9.675781-15 0v108.5c0 4.144531 3.355468 7.5 7.5 7.5h386.492187c9.675781 0 9.675781-15 0-15h-35.226562v-181.515625h89.492187v181.515625h-14.265625c-9.675781 0-9.675781 15 0 15h21.765625c4.144532 0 7.5-3.355469 7.5-7.5v-189.472656h16.871094c4.140625 0 7.5-3.355469 7.5-7.5v-58.339844c0-4.144531-3.355469-7.5-7.5-7.5zm-209.203125-162.6875v52h-23.914063c-4.144531 0-7.5 3.355469-7.5 7.5v13.433594h-15.648437v-13.433594c0-4.144531-3.359375-7.5-7.5-7.5h-24.300781v-52zm-200.914063 67h15.648438v13.433594c0 4.144531 3.355469 7.5 7.5 7.5h30.644531c4.144531 0 7.5-3.355469 7.5-7.5v-13.433594h15.648438v13.433594c0 4.144531 3.355469 7.5 7.5 7.5h30.644531c4.144531 0 7.5-3.355469 7.5-7.5v-13.433594h16.261719v13.433594c0 4.144531 3.359375 7.5 7.5 7.5h30.648437c4.144532 0 7.5-3.355469 7.5-7.5v-13.433594h16.261719v13.433594c0 4.144531 3.355469 7.5 7.5 7.5h30.648437c4.140626 0 7.5-3.355469 7.5-7.5v-13.433594h16.261719v13.433594c0 4.144531 3.355469 7.5 7.5 7.5h30.644531c4.144532 0 7.5-3.355469 7.5-7.5v-13.433594h15.648438v43.339844h-3.28125c-.671875-.195313-1.386719-.308594-2.125-.308594h-313.148438c-.738281 0-1.453124.109375-2.128906.308594h-3.277344zm-79.382812 110.6875h15.648438v13.433594c0 4.140625 3.355468 7.5 7.5 7.5h30.644531c4.144531 0 7.5-3.359375 7.5-7.5v-13.433594h15.648437v13.433594c0 4.140625 3.355469 7.5 7.5 7.5h30.644532c4.144531 0 7.5-3.359375 7.5-7.5v-13.433594h15.644531v43.339844h-138.230469zm353.136719 240.3125h-48.855469v-10.082031c0-34.691407-28.222656-62.917969-62.917969-62.917969-34.691406 0-62.917969 28.226562-62.917969 62.917969v10.082031h-49.582031v-97h224.273438zm-159.691407 0v-10.082031c0-26.421875 21.496094-47.917969 47.921876-47.917969 26.421874 0 47.917968 21.496094 47.917968 47.917969v10.082031zm159.691407-112h-224.273438v-69.972656h16.871094c4.144531 0 7.5-3.359375 7.5-7.5v-58.34375c0-4.140625-3.355469-7.5-7.5-7.5h-30.644531c-4.144532 0-7.5 3.359375-7.5 7.5v13.433594h-15.648438v-8.359376c.226563-.710937.347656-1.472656.347656-2.257812v-47.660156h298.152344v42.5c-.242187.738281-.378906 1.527344-.378906 2.347656v13.433594h-15.648438v-13.433594c0-4.144531-3.355468-7.5-7.5-7.5h-30.644531c-4.144531 0-7.5 3.355469-7.5 7.5v58.339844c0 4.144531 3.355469 7.5 7.5 7.5h16.871094v69.972656zm128.863281-84.972656h-138.234375v-43.339844h15.648437v13.433594c0 4.140625 3.355469 7.5 7.5 7.5h30.644532c4.144531 0 7.5-3.359375 7.5-7.5v-13.433594h15.648437v13.433594c0 4.140625 3.355469 7.5 7.5 7.5h30.644531c4.144532 0 7.5-3.359375 7.5-7.5v-13.433594h15.648438zm0 0"/>
  <path fill="#fff" d="m428.382812 345.648438c-4.144531 0-7.5 3.355468-7.5 7.5v38.316406c0 9.675781 15 9.675781 15 0v-38.316406c0-4.144532-3.355468-7.5-7.5-7.5zm0 0"/>
  <path fill="#fff" d="m256.863281 224c-18.726562 0-33.960937 15.234375-33.960937 33.960938v65.539062c0 4.144531 3.359375 7.5 7.5 7.5h52.925781c4.140625 0 7.5-3.355469 7.5-7.5v-65.539062c-.003906-18.726563-15.238281-33.960938-33.964844-33.960938zm18.960938 92h-37.921875v-58.039062c0-10.457032 8.507812-18.960938 18.960937-18.960938 10.457031 0 18.960938 8.503906 18.960938 18.960938zm0 0"/>
</svg>
