<svg height="511pt" viewBox="0 0 511.99818 511" width="511pt" xmlns="http://www.w3.org/2000/svg">
  <path fill="#fff" d="m86.121094 235.722656c0-82.214844 66.886718-149.101562 149.101562-149.101562 12.957032 0 12.976563-20.183594 0-20.183594-93.34375 0-169.28125 75.941406-169.28125 169.285156 0 12.957032 20.179688 12.976563 20.179688 0zm0 0"/>
  <path fill="#fff" d="m338.527344 301.871094c-7.410156-10.660156-19.601563-21.050782-33.277344-21.273438 8.335938-12.960937 13.195312-28.355468 13.195312-44.875 0-45.886718-37.335937-83.222656-83.222656-83.222656-45.886718 0-83.21875 37.335938-83.21875 83.222656 0 45.886719 37.332032 83.21875 83.21875 83.21875 16.324219 0 31.554688-4.742187 44.414063-12.894531.070312 2.9375.660156 5.890625 1.816406 8.730469l14.988281 36.8125c7.304688 17.941406 8.234375 36.222656 8.179688 51.738281-.046875 12.941406 4.652344 23.148437 11.082031 31.867187-25.527344 10.332032-52.542969 15.570313-80.480469 15.570313-118.574218 0-215.042968-96.46875-215.042968-215.042969 0-12.898437 1.152343-25.820312 3.421874-38.410156 2.296876-12.75-17.5625-16.347656-19.863281-3.578125-2.480469 13.765625-3.738281 27.894531-3.738281 41.988281 0 62.832032 24.46875 121.898438 68.894531 166.328125 44.425781 44.429688 103.496094 68.894531 166.328125 68.894531 33.023438 0 64.882813-6.699218 94.785156-19.898437 6.21875 6.121094 12.734376 11.695313 12.703126 21.238281-.074219 21.445313 17.3125 38.957032 38.757812 39.035156l70.496094.25h.160156c11.667969 0 22.648438-4.523437 30.9375-12.75 8.320312-8.261718 12.925781-19.273437 12.96875-31.003906.042969-12.238281 14.339844-19.265625 14.386719-32.679687l1.578125-172.867188c0-.019531 0-.039062 0-.054687.03125-8.273438-3.480469-16.1875-9.632813-21.714844-7.84375-7.046875-19.238281-9.335938-29.132812-5.632812l.007812-3.457032c.015625-4.796875-1.210937-9.445312-3.472656-13.535156-4.410156-58.757812-30.535156-113.320312-73.691406-153.78125-43.738281-41.007812-100.863281-63.59375-160.851563-63.59375-41.25 0-81.832031 10.832031-117.363281 31.328125-34.460937 19.878906-63.550781 48.390625-84.125 82.457031-6.699219 11.089844 10.570313 21.539063 17.273437 10.433594 18.816407-31.15625 45.417969-57.230469 76.933594-75.410156 32.472656-18.726563 69.566406-28.628906 107.28125-28.628906 54.839844 0 107.066406 20.648437 147.050782 58.136718 35.523437 33.304688 58.417968 77.058594 65.574218 124.644532-7.363281-.941407-14.9375.652343-20.949218 4.542968-.042969.027344-.085938.054688-.128907.082032-10.8125-10.8125-27.789062-11.730469-39.722656-2.0625-5.152344 4.171874-8.539063 9.980468-9.65625 16.398437-18.417969-6.105469-38.457031 8.253906-38.523437 27.664063zm-166.34375-66.148438c0-34.761718 28.28125-63.039062 63.039062-63.039062 34.761719 0 63.039063 28.277344 63.039063 63.039062 0 34.757813-28.277344 63.039063-63.039063 63.039063-34.757812 0-63.039062-28.28125-63.039062-63.039063zm186.859375 14.765625c1.816406-8.9375 15.007812-14.21875 17.902343-2.488281l-.164062 91.195312c-.023438 12.953126 20.121094 13.207032 20.183594.0625l.199218-112.15625c.019532-5.410156 5.675782-8.003906 10.390626-7.015624 7.035156 1.476562 7.640624 7.8125 7.75 13.929687l-.203126 104.519531c-.027343 12.964844 20.140626 13.207032 20.179688.050782l.203125-104.714844c-.804687-12.90625 17.613281-13.839844 17.570313-2.515625l-.183594 108.820312c.445312 13.085938 20.160156 13.101563 20.183594.039063l.125-75.585938c1.074218-11.386718 18.65625-16.324218 18.636718-2.507812l-1.582031 172.886718c-.023437 7.804688-10.683594 15.554688-12.949219 23.355469-2.734375 9.398438-.765625 18.511719-8.445312 26.136719-4.496094 4.464844-10.488282 6.914062-16.804688 6.890625l-70.496094-.253906c-10.316406-.035157-18.683593-8.460938-18.644531-18.785157.042969-13.957031-7.203125-24.390624-16.742187-33.738281-11.484375-11.25-21.402344-20.96875-21.351563-35.214843.0625-17.488282-1.039062-38.222657-9.667969-59.421876l-14.988281-36.808593c-1.480469-3.640625 2.464844-7.101563 5.945313-6.253907 9.710937 3.023438 15.335937 10.460938 20.789062 20.6875 6.3125 11.859376 9.21875 24.488282 11.621094 37.558594 2.148438 11.710938 19.972656 10.117188 20.015625-1.789062zm0 0"/>
  <path fill="#fff" d="m395.839844 375.65625c-2.113282-5.074219-8.097656-7.566406-13.179688-5.460938-5.085937 2.105469-7.558594 8.097657-5.460937 13.179688 2.097656 5.082031 8.101562 7.5625 13.179687 5.457031 5.070313-2.097656 7.574219-8.101562 5.460938-13.175781zm0 0"/>
  <path fill="#fff" d="m15.226562 160.710938c2.109376 5.058593 8.101563 7.582031 13.179688 5.460937s7.558594-8.089844 5.457031-13.179687c-2.09375-5.074219-8.105469-7.570313-13.179687-5.457032-5.089844 2.117188-7.546875 8.078125-5.457032 13.175782zm0 0"/>
</svg>
