<?xml version="1.0" encoding="iso-8859-1"?>
<!-- Generator: Adobe Illustrator 19.0.0, SVG Export Plug-In . SVG Version: 6.00 Build 0)  -->
<svg version="1.1" id="Capa_1" xmlns="http://www.w3.org/2000/svg" xmlns:xlink="http://www.w3.org/1999/xlink" x="0px" y="0px"
	 viewBox="0 0 502.2 502.2" style="enable-background:new 0 0 502.2 502.2;" xml:space="preserve">
<g>
	<g>
		<path d="M501.5,268.15c-1.8-13-15.2-23.4-40.3-31c-20.3-6.1-46-9.8-74-10.4v-106.7c0-2.2-0.7-4.3-2.1-6c-3.3-11.6-16.7-21-39.9-28
			c-22.5-6.8-51.9-10.5-82.8-10.5c-30.8,0-59.9,3.7-81.9,10.5c-18.1,5.6-39.8,16-39.8,33.9c0,1.1,0.1,2.2,0.3,3.3l1.1,45.6
			c-64.9-12.5-127.6,30.2-140,95.2c-1.4,7.3-2.1,14.8-2.1,22.3c0,66,53.7,119.7,119.7,119.7c27.5,0,54.1-9.5,75.5-26.8
			c18.8,4.4,40.8,6.8,64.1,7c5.1,27.7,65.1,40.4,121.1,40.4c30.8,0,59.8-3.8,82-10.7c18.2-5.6,39.8-16.1,39.8-34v-109.9
			C502.2,270.75,502,269.35,501.5,268.15z M186.5,105.15c20.2-6.2,47.2-9.7,76-9.7c28.6,0,56.6,3.5,77,9.7
			c21.7,6.6,26.4,13.4,26.4,14.8c0,1.4-4.7,8.3-26.5,14.8c-20.3,6.1-48.3,9.7-76.9,9.7c-27.6,0-53.8-3.2-73.7-9
			c-21.5-6.2-27.5-13.1-28-15.3c0-0.2,0-0.3-0.1-0.3C160.8,118.45,165.4,111.65,186.5,105.15z M367.2,144.95v25.6
			c-0.9,1.4-1.4,3.1-1.3,4.8c0,1.3-4.7,8.2-26.5,14.8c-20.3,6.1-48.4,9.7-77,9.7c-24.7,0-48.9-2.6-68.1-7.5
			c-0.3-0.1-0.5-0.1-0.8-0.2c-9.5-7.5-20-13.4-31.3-17.7l-0.7-28.2c6.9,3.5,14.1,6.3,21.6,8.3c21.7,6.3,49.8,9.7,79.3,9.7
			c30.9,0,60.3-3.7,82.7-10.5C352.8,151.65,360.2,148.65,367.2,144.95z M186.8,360.05c-40.7,37.1-103.8,34.1-140.8-6.6
			s-34.1-103.8,6.6-140.8c18.4-16.7,42.3-26,67.1-26c10,0,20,1.5,29.6,4.4c34.6,10.9,60.7,39.6,68.2,75.1c1.3,6.6,2,13.4,2,20.1
			C219.5,314.45,207.6,341.25,186.8,360.05z M212.2,362.25c8.1-9.9,14.6-21,19.2-32.9c8.5,0.7,17.5,1.2,26.7,1.3v1.8l0.5,33.9
			C243.1,366.15,227.6,364.75,212.2,362.25z M238.8,274.45c5.9,0.4,12,0.6,18.2,0.7c0,0.2,0.1,0.5,0.1,0.7l0.6,34.7
			c-7.1-0.1-14-0.4-20.7-0.9c1.5-7.7,2.3-15.6,2.3-23.4C239.4,282.35,239.2,278.45,238.8,274.45z M263.4,255.25c-0.3,0-0.6,0-0.9,0
			c-9.6,0-18.9-0.4-27.5-1c-3.8-13.4-9.8-26-17.9-37.2c15,1.9,30.1,2.9,45.3,2.9c30.9,0,60.3-3.7,82.8-10.5c7.7-2.4,15-5.3,22-9
			v26.5C324.2,228.15,279.8,237.15,263.4,255.25z M276.8,270.65c1-2.8,8.3-9.3,28.8-15.1c19.5-5.5,44.9-8.5,71.6-8.5h1.3
			c28.6,0,56.6,3.3,77,9.5c21.1,6.4,26.1,12.8,26.4,14.5v0.1c-0.1,1.5-5.1,8.4-27.3,15c-20.5,6.1-47.5,9.4-76.1,9.4
			c-27,0-52.8-3.1-72.6-8.6c-19.1-5.4-26.8-11.5-28.7-14.6C277.1,271.75,277,271.15,276.8,270.65z M482.2,381.95
			c0,1.4-4.5,8.3-25.7,14.9c-20.3,6.3-47.3,9.8-76.1,9.8c-28.9,0-55.9-3.4-75.9-9.5c-21.2-6.5-25.5-13.2-25.5-14.7
			c0-0.1,0-0.1,0-0.2l-0.5-28.9c23.8,12.1,63.5,17.6,99.9,17.6c30.9,0,60.1-3.7,82.5-10.5c7.4-2.2,14.5-5.2,21.3-8.8V381.95z
			 M481.3,326.55c0,1.4-4.6,8.2-26.2,14.8c-20.5,6.2-47.7,9.6-76.7,9.6c-54.9,0-92.1-12.3-100.3-22l-0.2-8.6l-0.4-22.9
			c7.3,3.7,14.9,6.6,22.8,8.7c21.5,6,49.2,9.4,78,9.4c30.4,0,59.4-3.6,81.7-10.2c7.7-2.2,15.1-5.1,22.1-8.8v25.7h0.1
			C482.2,323.55,481.3,325.05,481.3,326.55z"/>
	</g>
</g>
<g>
	<g>
		<path d="M169.6,339.75c-2-5.2-7.7-7.7-12.9-5.8c0-0.1,0-0.1,0-0.1c-18.9,7.2-40.2,2.6-54.4-11.7c-2.9-2.6-5.3-5.7-7.1-9.1h51.4
			c5.5,0,10-4.5,10-10s-4.5-10-10-10H87.9c-0.6-3.6-0.7-7.3-0.3-11h64.2c5.5,0,10-4.5,10-10s-4.5-10-10-10H93.5
			c2.4-4.3,5.3-8.2,8.7-11.8c14.3-14.2,35.6-18.8,54.4-11.5c5.2,2,10.9-0.6,12.9-5.7c2-5.2-0.6-10.9-5.7-12.9
			c-26.2-10.1-55.9-3.8-75.8,16.1c-7.4,7.3-13,16.1-16.5,25.9H57.3c-5.5,0-10,4.5-10,10s4.5,10,10,10h10c-0.2,3.7-0.2,7.3,0.2,11
			H57.3c-5.5,0-10,4.5-10,10s4.5,10,10,10h15.3c3.4,8.7,8.7,16.7,15.4,23.3c19.8,19.9,49.5,26.3,75.8,16.2
			C169,350.65,171.5,344.95,169.6,339.75z"/>
	</g>
</g>
<g>
</g>
<g>
</g>
<g>
</g>
<g>
</g>
<g>
</g>
<g>
</g>
<g>
</g>
<g>
</g>
<g>
</g>
<g>
</g>
<g>
</g>
<g>
</g>
<g>
</g>
<g>
</g>
<g>
</g>
</svg>
