<svg height="496pt" viewBox="0 0 496 496" width="496pt" xmlns="http://www.w3.org/2000/svg"><path fill="#fff" d="m459.488281 192h8.511719c15.441406 0 28-12.558594 28-28s-12.558594-28-28-28h-49.34375l-18.816406-40.761719c-6.511719-14.109375-20.769532-23.238281-36.320313-23.238281h-72.214843l10.0625-10.0625c6.855468-6.847656 10.632812-15.96875 10.632812-25.65625 0-20.007812-16.28125-36.28125-36.289062-36.28125-9.695313 0-18.808594 3.777344-25.664063 10.625l-2.046875 2.054688-2.054688-2.054688c-6.855468-6.847656-15.960937-10.625-25.65625-10.625-20.007812 0-36.289062 16.273438-36.289062 36.28125 0 9.6875 3.777344 18.808594 10.632812 25.65625l10.054688 10.0625h-72.207031c-15.542969 0-29.808594 9.128906-36.320313 23.238281l-18.816406 40.761719h-49.34375c-15.441406 0-28 12.558594-28 28s12.558594 28 28 28h8.519531c-10.640625 8.960938-19.480469 20.039062-25.71875 32.519531-7.074219 14.128907-10.800781 29.945313-10.800781 45.726563v97.753906c0 10.414062 6.710938 19.214844 16 22.527344v25.472656c0 13.230469 10.769531 24 24 24h32c13.230469 0 24-10.769531 24-24v-24h77.761719l-5.160157 11.351562-1.074218-.535156c-3.695313-1.839844-7.832032-2.816406-11.953125-2.816406-10.191407 0-19.351563 5.664062-23.910157 14.777344l-16.847656 33.695312c-1.839844 3.695313-2.816406 7.824219-2.816406 11.953125 0 10.191407 5.664062 19.359375 14.777344 23.910157l17.695312 8.839843c3.695313 1.847657 7.832032 2.824219 11.953125 2.824219 10.191407 0 19.351563-5.664062 23.910157-14.777344l16.847656-33.695312c1.839844-3.695313 2.816406-7.824219 2.816406-11.953125 0-10.191407-5.664062-19.359375-14.777344-23.910157l-2.300781-1.152343 8.40625-18.511719h48.671875v16h-16c-8.824219 0-16 7.175781-16 16v56c0 8.824219 7.175781 16 16 16h48c8.824219 0 16-7.175781 16-16v-56c0-8.824219-7.175781-16-16-16h-16v-16h48.664062l8.414063 18.511719-2.300781 1.152343c-9.113282 4.550782-14.777344 13.71875-14.777344 23.910157 0 4.128906.976562 8.257812 2.824219 11.953125l16.847656 33.695312c4.550781 9.113282 13.710937 14.777344 23.902344 14.777344 4.121093 0 8.25-.976562 11.960937-2.824219l17.679688-8.839843c9.121094-4.550782 14.785156-13.71875 14.785156-23.910157 0-4.128906-.976562-8.257812-2.824219-11.953125l-16.847656-33.695312c-4.550781-9.113282-13.710937-14.777344-23.902344-14.777344-4.121093 0-8.25.976562-11.960937 2.824219l-1.066406.527343-5.160157-11.351562h77.761719v24c0 13.230469 10.769531 24 24 24h32c13.230469 0 24-10.769531 24-24v-25.472656c9.289062-3.3125 16-12.113282 16-22.527344v-97.753906c0-15.789063-3.726562-31.597656-10.792969-45.726563-6.238281-12.480469-15.078125-23.558593-25.71875-32.519531zm-307.863281 286.863281-17.6875-8.839843c-3.664062-1.832032-5.9375-5.511719-5.9375-9.597657 0-1.65625.390625-3.3125 1.136719-4.800781l7.246093-14.488281 36.890626 18.4375-7.25 14.496093c-2.566407 5.128907-9.261719 7.386719-14.398438 4.792969zm31.238281-38.488281-2.449219 4.890625-36.886718-18.441406 2.449218-4.894531c1.832032-3.65625 5.503907-5.929688 9.597657-5.929688 1.65625 0 3.320312.390625 4.800781 1.136719l17.6875 8.839843c3.65625 1.832032 5.929688 5.503907 5.929688 9.597657.007812 1.65625-.382813 3.3125-1.128907 4.800781zm41.136719 39.625v-24h48.007812l.007813 24zm48-40h-48v-16h48zm94.863281 15.625c.746094 1.488281 1.136719 3.144531 1.136719 4.800781 0 4.09375-2.273438 7.773438-5.9375 9.597657l-17.679688 8.839843c-5.167968 2.578125-11.832031.335938-14.40625-4.800781l-7.25-14.496094 36.890626-18.4375zm-26.4375-39.625c4.09375 0 7.765625 2.273438 9.597657 5.929688l2.449218 4.894531-36.886718 18.441406-2.449219-4.890625c-.746094-1.488281-1.136719-3.144531-1.136719-4.800781 0-4.09375 2.273438-7.773438 5.9375-9.597657l17.679688-8.839843c1.488281-.746094 3.152343-1.136719 4.808593-1.136719zm-204.425781-184c4.40625 0 8 3.585938 8 8 0 2.503906-1.191406 4.894531-3.199219 6.398438-15.128906 11.355468-33.878906 17.601562-52.800781 17.601562h-8c-8.824219 0-16-7.175781-16-16s7.175781-16 16-16zm14.398438 27.199219c1.257812-.933594 2.328124-2.054688 3.363281-3.199219h81.8125l-21.8125 48h-68.464844c-18.039063 0-34.21875-9.816406-42.832031-25.097656 17.296875-2.453125 33.933594-9.199219 47.933594-19.703125zm73.601562-27.199219c0-4.414062 3.59375-8 8-8s8 3.585938 8 8v8h-8c-4.40625 0-8-3.585938-8-8zm32 0c0-4.414062 3.59375-8 8-8s8 3.585938 8 8-3.59375 8-8 8h-8zm-16 52.929688v19.070312h-8.664062zm0 35.070312v16h-23.214844l7.269532-16zm16 0h15.945312l7.269532 16h-23.214844zm0-16v-19.070312l8.664062 19.070312zm4.425781-48h81.8125c1.035157 1.144531 2.105469 2.257812 3.363281 3.191406 14 10.503906 30.644532 17.257813 47.941407 19.710938-8.621094 15.28125-24.808594 25.097656-42.839844 25.097656h-68.464844zm147.574219 8c-18.921875 0-37.671875-6.246094-52.808594-17.609375-2-1.496094-3.191406-3.886719-3.191406-6.390625 0-4.414062 3.59375-8 8-8h56c8.824219 0 16 7.175781 16 16s-7.175781 16-16 16zm-48-48c-13.230469 0-24 10.769531-24 24h-49.472656c.898437-2.511719 1.472656-5.183594 1.472656-8 0-13.230469-10.769531-24-24-24-6.167969 0-11.742188 2.40625-16 6.238281-4.257812-3.839843-9.832031-6.238281-16-6.238281-13.230469 0-24 10.769531-24 24 0 2.816406.574219 5.488281 1.472656 8h-49.472656c0-13.230469-10.769531-24-24-24h-40v-24h304v24zm-283.496094-40 13.617188-29.503906c23.496094-17.0625 52.007812-26.496094 81.101562-26.496094h153.546875c29.09375 0 57.605469 9.433594 81.101563 26.496094l13.625 29.503906zm403.496094-12c0 6.617188-5.382812 12-12 12h-30.878906l-11.082032-24h41.960938c6.617188 0 12 5.382812 12 12zm-116.480469-76c9.328125 0 17.878907 5.480469 21.792969 13.945312l8.589844 18.621094c-21.359375-10.71875-45.054688-16.566406-69.125-16.566406h-65.464844l16-16zm-143.230469-72c5.421876 0 10.511719 2.113281 14.335938 5.9375l13.375 13.382812 13.367188-13.382812c3.832031-3.824219 8.929687-5.9375 14.34375-5.9375 11.183593 0 20.289062 9.105469 20.289062 20.28125 0 5.414062-2.113281 10.503906-5.945312 14.34375l-42.054688 42.0625-42.054688-42.0625c-3.832031-3.832031-5.945312-8.929688-5.945312-14.34375 0-11.175781 9.105469-20.28125 20.289062-20.28125zm-109.601562 85.945312c3.90625-8.464843 12.464844-13.945312 21.792969-13.945312h88.214843l16 16h-65.464843c-24.070313 0-47.765625 5.847656-69.132813 16.558594zm-94.6875 62.054688c0-6.617188 5.382812-12 12-12h41.960938l-11.082032 24h-30.878906c-6.617188 0-12-5.382812-12-12zm0 106.246094c0-13.316406 3.152344-26.652344 9.105469-38.566406 8.292969-16.582032 21.992187-30.28125 38.574219-38.566407l2.214843-1.113281h14.105469v24c-17.648438 0-32 14.351562-32 32s14.351562 32 32 32h5.320312c10.136719 24.054688 33.527344 40 59.976563 40h61.191406l-7.273437 16h-127.214844c-22.054688 0-40 17.945312-40 40h-8c-4.40625 0-8-3.585938-8-8zm64 145.753906c0 4.414062-3.59375 8-8 8h-8v-16h-16v16h-8c-4.40625 0-8-3.585938-8-8v-24h48zm-32-40c0-13.230469 10.769531-24 24-24h119.9375l-10.914062 24zm150.609375 0 10.910156-24h30.480469v24zm57.390625 0v-24h30.488281l10.910157 24zm48.054688-24h119.945312c13.230469 0 24 10.769531 24 24h-133.03125zm151.945312 72h-8v-16h-16v16h-8c-4.40625 0-8-3.585938-8-8v-24h48v24c0 4.414062-3.59375 8-8 8zm24-56c0 4.414062-3.59375 8-8 8h-8c0-22.054688-17.945312-40-40-40h-127.214844l-7.273437-16h61.191406c26.449219 0 49.839844-15.945312 59.976563-40h5.320312c17.648438 0 32-14.351562 32-32s-14.351562-32-32-32v-24h14.105469l2.214843 1.113281c16.582032 8.285157 30.28125 21.984375 38.574219 38.566407 5.953125 11.914062 9.105469 25.25 9.105469 38.566406zm0 0"/></svg>
