<?xml version="1.0" encoding="iso-8859-1"?>
<!-- Generator: Adobe Illustrator 19.0.0, SVG Export Plug-In . SVG Version: 6.00 Build 0)  -->
<svg version="1.1" id="Capa_1" xmlns="http://www.w3.org/2000/svg" x="0px" y="0px"
     viewBox="0 0 512.003 512.003" style="enable-background:new 0 0 512.003 512.003;" xml:space="preserve">
<g>
	<g>
		<path fill="#fff" d="M141.924,380.075c-35.803-36.431-97.274-10.791-97.712,39.478c-0.274,31.513,25.259,57.532,57.039,57.532
			C151.852,477.086,177.112,415.884,141.924,380.075z M130.708,450.034c-26.631,26.169-71.823,6.883-71.499-30.349
			c0.323-37.192,45.774-55.805,72.018-29.098C147.509,407.156,147.282,433.746,130.708,450.034z"/>
	</g>
</g>
  <g>
	<g>
		<path fill="#fff" d="M239.594,222.662c-3.238-5.018-8.237-8.473-14.073-9.729c-5.836-1.259-11.814-0.167-16.832,3.07
			c-18.474,11.926-10.306,41.144,12.169,41.144c4.252,0,8.421-1.22,12.078-3.58c5.017-3.238,8.472-8.237,9.729-14.074
			C243.923,233.656,242.831,227.679,239.594,222.662z M228.004,236.335c-0.414,1.922-1.551,3.566-3.201,4.632
			c-1.652,1.065-3.62,1.424-5.54,1.011c-1.922-0.414-3.565-1.551-4.632-3.201c-1.065-1.651-1.425-3.618-1.011-5.539
			c0.414-1.922,1.551-3.566,3.201-4.632c1.204-0.777,2.576-1.179,3.976-1.179c0.521,0,1.045,0.056,1.565,0.168
			c1.921,0.414,3.565,1.551,4.631,3.201C228.06,232.446,228.418,234.414,228.004,236.335z"/>
	</g>
</g>
  <g>
	<g>
		<path fill="#fff" d="M495.091,480.567h-0.011l-67.55,0.1l-0.027-18.261l67.549-0.101c4.142-0.006,7.494-3.368,7.488-7.51
			c-0.006-4.138-3.362-7.488-7.499-7.488h-0.011l-67.55,0.101l-0.027-18.262l67.549-0.101c4.142-0.006,7.494-3.368,7.488-7.51
			c-0.006-4.138-3.362-7.488-7.499-7.488h-0.011l-67.551,0.101l-0.027-18.262l67.549-0.1c4.142-0.006,7.494-3.368,7.488-7.51
			c-0.006-4.138-3.361-7.488-7.499-7.488h-0.011l-67.55,0.1l-0.027-18.262l67.549-0.1c4.142-0.006,7.494-3.368,7.488-7.51
			c-0.006-4.138-3.361-7.488-7.499-7.488c-0.124,0-67.427,0.1-67.562,0.1l-0.027-18.262l67.549-0.1
			c4.142-0.006,7.494-3.368,7.488-7.51c-0.006-4.138-3.361-7.488-7.499-7.488c0,0-0.008,0-0.011,0l-67.551,0.1l-0.027-18.262
			l67.55-0.1c4.142-0.006,7.494-3.368,7.488-7.51c-0.006-4.138-3.361-7.488-7.499-7.488c0,0-0.008,0-0.011,0l-67.551,0.1
			l-0.027-18.262l67.55-0.1c4.142-0.006,7.494-3.368,7.488-7.51c-0.006-4.138-3.361-7.488-7.499-7.488c0,0-0.008,0-0.011,0
			l-67.551,0.1l-0.027-18.261l67.55-0.101c4.142-0.006,7.494-3.368,7.488-7.51c-0.006-4.138-3.362-7.488-7.499-7.488
			c0,0-0.008,0-0.011,0l-67.551,0.101l-0.027-18.262l67.549-0.101c4.142-0.006,7.494-3.368,7.488-7.51
			c-0.006-4.138-3.362-7.488-7.499-7.488c-0.004,0-0.008,0-0.011,0l-67.551,0.101l-0.027-18.262l67.549-0.1
			c4.142-0.006,7.494-3.368,7.488-7.51c-0.006-4.138-3.361-7.488-7.499-7.488c-0.003,0-0.008,0-0.008,0l-67.554,0.1l-0.027-18.262
			l67.549-0.1c4.142-0.006,7.494-3.368,7.488-7.51c-0.006-4.138-3.361-7.488-7.499-7.488c-0.003,0-0.008,0-0.008,0l-67.552,0.1
			l-0.027-18.262l67.55-0.1c4.142-0.006,7.494-3.368,7.488-7.51c-0.006-4.138-3.361-7.488-7.499-7.488c-0.003,0-0.008,0-0.008,0
			l-67.554,0.1l-0.027-18.262l67.549-0.1c4.142-0.006,7.494-3.368,7.488-7.51c-0.006-4.138-3.361-7.488-7.499-7.488
			c-0.124,0-67.427,0.1-67.562,0.1l-0.027-18.261l67.551-0.101c4.142-0.006,7.494-3.368,7.488-7.51
			c-0.006-4.138-3.362-7.488-7.499-7.488c-0.004,0-0.008,0-0.008,0l-68.265,0.102C423.793,6.392,415.899,0,406.523,0
			c-0.01,0-0.021,0-0.031,0c-8.392,0.012-15.601,5.136-18.688,12.414l-1.414,0.002c-30.508,0.047-55.291,24.904-55.246,55.411
			l0.042,28.12c0.006,4.138,3.362,7.488,7.499,7.488h0.011c4.142-0.006,7.494-3.368,7.488-7.51l-0.042-28.12
			c-0.033-22.17,17.923-40.247,40.067-40.39l0.561,376.76c0.006,4.138,3.361,7.488,7.499,7.488h0.011
			c4.142-0.006,7.494-3.368,7.488-7.51c-0.04-26.975-0.545-366.551-0.57-383.823c-0.008-5.049,5.759-5.528,5.326-5.333
			c2.933,0,5.32,2.385,5.325,5.317c0.218,146.77,0.482,323.91,0.701,471.235c0.007,5.048-5.76,5.529-5.327,5.334
			c-2.932,0-5.32-2.385-5.325-5.318c0-0.174-0.078-52.288-0.078-52.419c-0.006-4.138-3.361-7.488-7.499-7.488h-0.011
			c-4.142,0.006-7.494,3.368-7.488,7.51c0.013,8.479,0.048,32.103,0.067,45.359c-22.167-0.077-40.151-18.334-40.187-40.27
			c-0.028-18.763-0.439-295.238-0.466-313.339c-0.006-4.138-3.361-7.488-7.499-7.488h-0.011c-4.142,0.006-7.494,3.368-7.488,7.51
			l0.295,198.657c-13.894-2.382-19.915-0.938-67.449-0.923l-0.294-33.592c1.428-10.964,10.841-39.285,4.526-80.657
			c-0.115-0.753,0.71,2.588-14.025-53.429c-8.569-136.207-8.179-130.561-8.27-131.147c-2.351-15.62-18.941-25.618-23.969-28.309
			c-4.033-2.16-9.056-2.085-13.119,0.524c-4.08-2.62-9.102-2.676-13.119-0.524c-12.387,6.629-19.691,20.012-20.049,29.126
			l-3.979,99.149c-23.501,89.309-22.121,83.858-22.236,84.612c-6.331,41.48,3.149,70.083,4.526,80.657l-0.294,33.592
			c-23.017-0.2-16.233-0.152-17.548-0.152c-4.11,0-7.462,3.314-7.498,7.434c-0.036,4.141,3.292,7.528,7.434,7.564
			c34.668,0.302,31.14,0.24,32.161,0.365c6.086,0.753,10.357,5.913,10.307,11.769l-0.56,64.068
			c-0.184,21.029-8.571,40.695-23.618,55.374c-30.622,29.869-78.718,28.627-108.022-1.191
			c-47.374-48.213-13.436-129.902,54.886-130.667c4.141-0.047,7.461-3.441,7.415-7.583c-0.047-4.141-3.47-7.425-7.583-7.415
			c-50.521,0.567-91.678,41.703-91.747,91.699c-0.069,50.787,41.038,91.942,91.835,91.942c48.067,0,87.676-37.587,91.524-85.169
			c6.419-1.316,12.07-4.781,16.163-9.61c4.093,4.83,9.743,8.295,16.163,9.611c5.63,69.62,84.12,109.25,142.904,69.432
			c10.87,4,19.524,3.297,20.524,3.377c7.829,18.307,34.581,15.637,38.6-3.857l67.974-0.101c4.142-0.006,7.494-3.368,7.488-7.51
			C502.584,483.918,499.229,480.567,495.091,480.567z M331.704,444.28c0.001,0.809,0.027,1.615,0.063,2.419
			c0.009,0.21,0.019,0.42,0.031,0.629c0.005,0.079,0.008,0.157,0.013,0.236c0.041,0.667,0.091,1.333,0.155,1.997
			c0.021,0.212,0.047,0.422,0.069,0.634c0.014,0.13,0.031,0.26,0.046,0.39c0.309,2.69,0.858,5.489,1.515,7.937
			c-27.136,11.974-58.738-7.56-59.004-38.103c-0.26-29.605,29.457-50.232,57.017-39.648L331.704,444.28z M217.249,16.064
			c6.532,3.985,12.865,10,13.898,15.742l3.407,54.233c-7.451-28.297-16.274-61.807-17.865-67.848L217.249,16.064z M200.757,398.653
			c-0.048,5.332-3.133,9.939-7.599,12.186l0.481-55.054c0.124-14.214-10.847-25.949-24.858-26.927
			c0.265-36.087,0.422-34.54,0.166-35.874c-1.534-11.521-10.387-37.602-4.628-75.906l4.68-17.771
			c-2.04,50.805-1.803,35.926-1.826,40.564c-0.044,8.602,2.377,17.249,7.293,24.814l26.842,41.294l0.129,14.747L200.757,398.653z
			 M224.23,355.786l0.481,55.064c-4.473-2.249-7.55-6.849-7.597-12.195c-0.906-103.776-0.337-96.395-2.041-99.014
			c-28.608-44.466-29.031-43.599-31.089-49.249c-2.701-7.419-2.422,9.825,6.751-218.686c1.057-6.315,4.676-11.956,9.903-15.567
			c5.195,19.731,46.578,176.892,52.911,200.941c6.331,42.109-4.829,68.91-4.763,77.388l0.301,34.39
			C234.996,329.852,224.106,341.657,224.23,355.786z M239.788,419.723c-0.577-68.623-0.695-64.63-0.341-66.436
			c0.002-0.009,0.005-0.018,0.007-0.028c1.565-7.886,9.199-9.283,9.07-9.21c1.47-0.314,3.352-0.341,8.195-0.311
			c53.182,0.027,60.827-1.786,74.837,1.117l0.03,20.198c-19.713-5.341-40.861-0.016-55.64,15.022
			c-10.678,10.866-16.485,25.24-16.352,40.473c0.359,41.195,42.875,67.901,79.83,51.785c3.47,5.826,7.962,10.994,13.574,15.407
			C301.639,515.472,240.293,477.578,239.788,419.723z"/>
	</g>
</g>
  <g>
</g>
  <g>
</g>
  <g>
</g>
  <g>
</g>
  <g>
</g>
  <g>
</g>
  <g>
</g>
  <g>
</g>
  <g>
</g>
  <g>
</g>
  <g>
</g>
  <g>
</g>
  <g>
</g>
  <g>
</g>
  <g>
</g>
</svg>
