<?xml version="1.0" encoding="iso-8859-1"?>
<!-- Generator: Adobe Illustrator 19.0.0, SVG Export Plug-In . SVG Version: 6.00 Build 0)  -->
<svg version="1.1" id="Capa_1" xmlns="http://www.w3.org/2000/svg" xmlns:xlink="http://www.w3.org/1999/xlink" x="0px" y="0px"
	 viewBox="0 0 242.44 242.44" style="enable-background:new 0 0 242.44 242.44;" xml:space="preserve">
<g>
	<path d="M223.374,127.819c-3.769-22.452-19.598-26.04-27.035-26.463c-2.341-0.133-4.516-1.32-5.8-3.281
		c-5.388-8.225-12.609-10.4-18.743-10.4c-4.405,0-8.248,1.122-10.448,1.932c-0.275,0.102-0.559,0.15-0.837,0.15
		c-0.87,0-1.702-0.471-2.163-1.262c-5.473-9.387-13.253-11.809-19.822-11.809c-3.824-0.001-7.238,0.82-9.549,1.564
		c-0.24,0.077-0.489,0.113-0.724,0.113c-1.256,0-2.363-1.03-2.363-2.376V27.715c0-11.034-8.224-16.552-16.5-16.552
		c-8.276,0-16.5,5.518-16.5,16.552v84.912c0,4.99-4.086,8.075-8.194,8.075c-2.494,0-5.036-1.138-6.689-3.678L70,104.743
		c-3.508-5.789-8.61-8.188-13.659-8.188c-11.412-0.001-22.591,12.258-14.661,25.344l62.483,119.431
		c0.409,0.782,1.217,1.111,2.099,1.111h87.758c1.252,0,2.289-0.814,2.365-2.064l2.196-35.686c0.025-0.412,0.162-0.774,0.39-1.12
		C220.755,170.576,226.992,149.377,223.374,127.819z"/>
	<path d="M40.889,20.344v56.536c0,3.313,2.686,6,6,6c3.313,0,6-2.687,6-6V20.626l12.17,12.003c2.342,2.342,6.225,2.343,8.569-0.001
		c2.343-2.343,2.384-6.142,0.041-8.485L51.303,1.757c-2.342-2.342-6.131-2.343-8.475,0.001L19.859,24.733
		c-2.343,2.343-2.34,6.142,0.004,8.485c1.171,1.171,2.708,1.757,4.243,1.757c1.535,0,2.905-0.586,4.077-1.758L40.889,20.344z"/>
</g>
<g>
</g>
<g>
</g>
<g>
</g>
<g>
</g>
<g>
</g>
<g>
</g>
<g>
</g>
<g>
</g>
<g>
</g>
<g>
</g>
<g>
</g>
<g>
</g>
<g>
</g>
<g>
</g>
<g>
</g>
</svg>
