<svg height="496pt" viewBox="0 0 496 496" width="496pt" xmlns="http://www.w3.org/2000/svg"><path d="m488 80c4.425781 0 8-3.585938 8-8v-48c0-4.414062-3.574219-8-8-8h-164.71875c-.128906-.128906-.234375-.273438-.371094-.398438l-1.535156-1.546874c-9.078125-9.0625-21.136719-14.054688-33.941406-14.054688h-2.167969c-10.691406 0-20.738281 4.160156-28.289063 11.710938l-8.976562 8.96875-8.96875-8.96875c-7.550781-7.550782-17.597656-11.710938-28.289062-11.710938h-2.167969c-12.8125 0-24.863281 4.992188-33.941407 14.054688l-1.542968 1.546874c-.128906.125-.242188.269532-.371094.398438h-164.71875c-4.425781 0-8 3.585938-8 8v48c0 4.414062 3.574219 8 8 8h24v336h-8c-4.425781 0-8 3.585938-8 8v24h-8c-4.425781 0-8 3.585938-8 8v32c0 4.414062 3.574219 8 8 8h168c4.425781 0 8-3.585938 8-8v-136c0-48.273438-29.496094-91.503906-72.617188-110.175781 45.953126-12.222657 85.609376-41.976563 110.328126-83.054688l21.585937 15.695313c1.398437 1.023437 3.054687 1.535156 4.703125 1.535156s3.304688-.511719 4.703125-1.527344l21.585937-15.703125c24.71875 41.078125 64.367188 70.832031 110.328126 83.054688-43.121094 18.671875-72.617188 61.902343-72.617188 110.175781v136c0 4.414062 3.574219 8 8 8h168c4.425781 0 8-3.585938 8-8v-32c0-4.414062-3.574219-8-8-8h-8v-24c0-4.414062-3.574219-8-8-8h-8v-336zm-8-48v32h-136.121094c-.390625-11.359375-3.34375-22.257812-8.679687-32zm-80 164.175781c-36.601562-8.847656-68.167969-32.769531-86.6875-65.792969l1.03125-.75c16.230469-11.800781 26.746094-29.929687 29.136719-49.640624h56.519531zm-384-164.175781h144.808594c-5.335938 9.742188-8.296875 20.640625-8.679688 32h-136.128906zm80 48h56.519531c2.382813 19.710938 12.894531 37.832031 29.128907 49.640625l1.03125.75c-18.519532 33.023437-50.085938 56.9375-86.6875 65.785156v-116.175781zm-48 0h32v336h-32zm-16 352h64v16h-64zm56 48h-72v-16h96v16zm80-128v128h-40v-24c0-4.414062-3.574219-8-8-8h-8v-24c0-4.414062-3.574219-8-8-8h-8v-162.9375c42.257812 13.699219 72 53.785156 72 98.9375zm-72-123.070312v-16.363282c41.878906-9 78.273438-35.535156 99.726562-72.695312l13.027344 9.472656c-24.488281 41.472656-65.59375 70.480469-112.753906 79.585938zm152-70.816407-51.289062-37.304687-5.648438-4.105469c-14.4375-10.511719-23.0625-27.4375-23.0625-45.296875v-4.902344c0-14.960937 5.832031-29.015625 16.398438-39.601562l1.539062-1.535156c6.046875-6.039063 14.085938-9.367188 22.628906-9.367188h2.167969c6.417969 0 12.449219 2.496094 16.976563 7.023438l14.625 14.632812c3 3 8.3125 3 11.3125 0l14.625-14.632812c4.542968-4.527344 10.566406-7.023438 16.984374-7.023438h2.167969c8.542969 0 16.582031 3.328125 22.628907 9.367188l1.539062 1.535156c10.574219 10.585937 16.40625 24.648437 16.40625 39.601562v4.902344c0 17.859375-8.625 34.785156-23.0625 45.289062zm39.257812-8.777343 13.023438-9.472657c21.453125 37.160157 57.839844 63.703125 99.726562 72.703125v16.363282c-47.167968-9.105469-88.273437-38.113282-112.75-79.59375zm40.742188 202.664062c0-45.152344 29.742188-85.238281 72-98.9375v162.9375h-8c-4.425781 0-8 3.585938-8 8v24h-8c-4.425781 0-8 3.585938-8 8v24h-40zm152 128h-96v-16h96zm-80-32v-16h64v16zm48-32h-32v-336h32zm0 0"/></svg>